<?xml version="1.0" encoding="utf-8"?>
<!-- Generator: Adobe Illustrator 24.1.2, SVG Export Plug-In . SVG Version: 6.00 Build 0)  -->
<svg version="1.1" id="Layer_1" xmlns="http://www.w3.org/2000/svg" xmlns:xlink="http://www.w3.org/1999/xlink" x="0px" y="0px"
	 viewBox="0 0 661 207" style="enable-background:new 0 0 661 207;" xml:space="preserve">
<style type="text/css">
	.st0{fill:#EB678B;}
	.st1{fill:#D87124;}
	.st2{fill:#2D6E40;}
	.st3{fill:#2C55A1;}
</style>
<g>
	<path class="st0" d="M57.89,155.68l-2.48-1.65c-0.46-0.46-0.36-0.98-0.38-1.46l0.03-0.57V50.3l34.72-1
		c1.15,0.06,2.76,0.33,3.86,0.12c1.21-0.23,0.88,0,3.18-0.41c1.79-0.32,3.59,0.2,5.4,0.21c2.35,0.01,4.72-0.2,7.05,0.01
		c3.79,0.34,7.6,0.74,11.05,2.6c0.23,0.13,0.51,0.26,0.76,0.25c2.44-0.14,3.83,1.58,5.45,2.96c1.3,1.1,1.95,2.65,3,3.92
		c0.57,0.7,0.84,1.83,0.89,2.55c0.12,1.89,1.62,2.89,2.23,4.41c0.2,0.5,0.42,0.97,0.46,1.51c0.19,2.48,0.17,4.92-0.66,7.33
		c-0.63,1.82-2.11,2.82-3.44,3.97c-1.49,1.27-2.97,2.56-4.56,3.69c-1.46,1.05-2.99,1.97-4.87,2.27c-1.48,0.24-2.99,0.6-4.35,1.35
		c-0.16,0.09-0.33,0.16-0.5,0.19c-2.85,0.49-5.55,1.52-8.29,2.37c-0.25,0.08-0.56,0.09-0.81,0.01c-3.23-0.98-6.55-0.58-9.79-0.33
		c-1.96,0.15-3.71,1.42-5.27,2.74c-1.24,1.05-2.51,2.09-2.52,3.89c-0.02,2.57,0.43,4.38,3.43,5.53c2.87,1.1,5.71,0.79,8.51,0.37
		c1.58-0.24,3.2-0.98,4.56-2.07c0.59-0.47,1.52-0.79,2.15-0.85c1.41-0.13,2.58-0.84,3.9-1.15c1.73-0.4,3.38-1.18,5.03-1.87
		c2.42-1.01,4.86-0.99,7.32-0.27c0.35,0.1,0.71,0.36,1.11,0.37c2.94,0.08,5.12,1.75,7.18,3.55c2.09,1.82,3.61,4.09,5.05,6.49
		c0.92,1.53,2.34,2.82,3.38,4.34c0.87,1.26,1.58,2.59,2.23,3.98c1.5,3.22,1.56,6.64,1.97,10.06c0.31,2.56-0.22,5.01-0.36,7.49
		c-0.07,1.13-0.47,2.52-1.13,3.72c-0.51,0.92-0.55,2.11-0.89,3.17c-1.28,4.07-3.49,7.54-6.74,10.23c-2.29,1.89-4.87,3.44-7.38,5.06
		c-0.75,0.48-1.8,0.61-2.61,0.78c-2.31,0.47-4.57,1.73-7.03,1.1c-1.29,0.57-2.41,0.47-3.3,1c-1.33,0.79-2.83,1.02-4.14,1.27
		c-2.44,0.47-4.87,1.24-7.44,1.18c-4.02-0.09-8.05-0.07-12.07,0.09c-2.56,0.1-5.13-0.2-7.48-0.83c-2.39-0.64-4.74-0.13-7.01-0.65
		c-2.86-0.66-5.8-0.52-8.67-1.15c-1.43-0.31-2.97-0.11-4.46-0.19L57.89,155.68z M74.37,145.19c0.01,2.21,0.64,3.82,2.56,5.2
		c2.33,1.66,4.91,2.56,7.57,3.29c1.4,0.38,2.95,0.55,4.37,0.61c3.56,0.14,7.05,1.1,10.89,0.82c3.02,0.49,6.11-0.84,9.34-1.04
		c1.14-0.07,2.48-0.35,3.6-0.9c1.7-0.84,3.51-1.38,5.21-2.22c1.92-0.95,3.73-1.96,4.89-3.84c1.2-1.94,2.42-3.85,3.46-5.9
		c1.03-2.02,1.96-3.99,2.2-6.26c0.38-3.53-0.12-7.04-0.3-10.55c-0.01-0.26-0.03-0.59-0.19-0.77c-0.95-1.09-0.61-2.58-1.27-3.83
		c-0.46-0.88-0.81-2-1.25-2.95c-0.89-1.97-2.16-3.76-3.84-5.19c-2.37-2.03-4.77-3.98-7.67-5.29c-1.06-0.48-2.18-0.45-3.19-0.92
		c-1.58-0.74-3.38-1.08-4.99-1.14c-4.4-0.18-8.84-0.28-13.21,0.63c-0.48,0.1-1.01,0.15-1.48,0.05c-2.36-0.54-4.59-1.44-6.47-2.99
		c-1.74-1.45-3.08-3.31-2.64-5.62c0.35-1.81,0.83-3.68,1.9-5.32c1.23-1.89,2.67-3.2,5.1-2.9c0.4,0.05,0.9,0.09,1.2-0.1
		c1.88-1.17,4.09-0.79,6.12-1.26c2.36-0.55,4.75-0.85,7.02-1.85c3.01-1.33,5.66-3.11,7.8-5.58c2.32-2.69,3.88-5.73,3.58-9.45
		c-0.09-1.08-0.06-2.17-0.13-3.25c-0.08-1.41-0.83-2.6-1.34-3.87c-0.89-2.23-2.67-3.71-4.36-5.26c-3.77-3.45-8.17-5.29-13.33-4.81
		c-1.62,0.15-1.95,0.27-3.65,0.23c-1.17-0.03-1.75,0-4.44-0.27c-2.58-0.26-5.14,0.04-7.75,0.69c-2.58,0.64-2.89,0.54-5.35,1.34
		L74.37,145.19z"/>
	<path class="st1" d="M297.8,53.73c2.23,0.63,4.42,1.46,6.4,2.66c1.41,0.85,3.29,1.18,4.64,2.07c2.43,1.6,4.4,3.69,6.36,5.74
		c1.69,1.78,2.46,4.14,3.76,6.17c1.5,2.33,2.34,4.95,3.46,7.45c0.86,1.91,1.56,3.9,2.07,5.92c0.27,1.05,0.94,1.86,1.41,2.73
		c0.49,0.91,0.46,1.8,0.73,2.68c1.13,3.63,0.83,7.35,1,11.04c0,1.64-0.13,3.28,0.03,4.9c0.28,2.81-0.7,5.49-1,8.23
		c-0.26,2.4-0.98,4.88-1.76,7.22c-0.62,1.87-1.07,3.83-2.11,5.57c-0.07,0.12-0.17,0.26-0.17,0.4c-0.1,4.2-2.86,7.45-4.81,10.86
		c-2.43,4.23-6.11,7.69-10.07,10.83c-2.53,2.01-5.5,3.41-8.06,5.3c-2.78,2.06-5.96,2.15-9.12,2.63c-3.95,0.6-7.76-0.6-11.62-0.96
		c-2.81-0.26-5.56-1.17-8.42-1.5c-1.98-0.23-3.92-1.34-5.44-2.61c-1.94-1.63-4.29-2.59-6.31-4.02c-3.14-2.23-5.44-5.18-7.3-8.46
		c-1.48-2.62-2.43-5.44-3.48-8.2c-0.52-1.36-0.9-2.91-1.39-4.29c-0.56-1.59-0.32-3.41-1.5-4.81c-0.08-0.1-0.07-0.28-0.1-0.42
		c-1.04-4.65-1.41-9.37-1.37-14.1c0.05-5.63-0.33-11.25-0.09-16.88c0.11-2.48,0.69-4.86,1.53-7.19c0.05-0.14,0.12-0.29,0.09-0.42
		c-0.34-2.14,0.95-4.02,1.1-6.13c0.13-1.81,0.97-3.64,1.82-5.31c0.8-1.56,1.47-3.18,2.22-4.76c1.46-3.04,3.65-5.4,6.17-7.63
		c1.66-1.46,3.62-2.15,5.72-2.84c1.91-0.63,3.9-1.2,5.67-2.26c0.71-0.42,1.74-0.8,2.47-0.84c1.89-0.11,3.57-1,5.42-1.05
		c3.62-0.1,7.23-0.23,10.85,0.01C286.61,51.47,291.95,52.08,297.8,53.73z M268.41,84.83 M268.1,145.86
		c1.76,0.08,7.78,4.11,9.63,3.99c3.2-0.21,3.55-2.22,6.75-2.19c1.18,0.01,2.06-0.35,2.64-1.24c0.26-0.39,0.6-0.44,0.93-0.63
		c2.29-1.3,4.6-2.54,6.56-4.33c1.18-1.08,2.06-2.36,3.15-3.49c2.07-2.13,3.24-4.71,3.85-7.57c0.26-1.2,0.5-2.56,1.06-3.56
		c0.76-1.37,0.79-2.86,1.43-4.25c1.02-2.22,1.63-4.62,2.14-7.06c0.58-2.79,0.93-5.61,1.27-8.41c0.36-2.94-0.05-5.96,0.05-8.93
		c0.16-5.15-0.81-10.2-1.19-15.3c-0.02-0.24,0.01-0.55-0.13-0.7c-1.25-1.36-0.73-3.22-1.56-4.77c-0.62-1.16-1.04-2.53-1.45-3.85
		c-0.67-2.16-1.75-4.21-2.47-6.37c-0.53-1.57-1.27-2.99-2.4-4.2c-1.94-2.08-4.08-3.87-6.76-5.18c-1.63-0.8-4.31-1.56-5.97-2.22
		c-2.97,0-5.39-0.27-8.9,0c-1.24,0.1-7.65,1.64-8.64,2.57V145.86z"/>
	<path class="st0" d="M477.75,130.96c0.68,1.43,1.22,2.94,1.97,4.32c0.82,1.48,1.52,3.02,2.25,4.55c0.67,1.4,1.39,2.77,2.07,4.17
		c0.69,1.43,1.34,2.88,2.04,4.32c0.39,0.81,0.66,2.03,1.28,2.3c1.7,0.73,3.54,1.15,5.36,1.51c1.19,0.23,2.51,0.34,3.62-0.14
		c2.19-0.94,4.54-1.28,6.73-2.27c1.97-0.89,3.78-1.99,5.53-3.25c1.45-1.04,2.57-2.49,3.73-3.84c1.96-2.3,3.79-4.73,3.61-8.12
		c-0.16-3.06,0.05-6.08-0.83-9.17c-0.85-3-0.92-6.25-1.85-9.32c-0.37-1.22-0.56-2.58-0.74-3.85c-0.67-4.66-1.75-9.22-2.69-13.82
		c-0.43-2.08-0.45-4.22-0.84-6.35c-0.82-4.45-0.45-9.04-0.32-13.57c0.03-1.17,0.61-2.17,1-3.17c0.56-1.45,1.19-2.9,1.27-4.43
		c0.08-1.57,0.5-3.06,1.14-4.32c1.65-3.24,2.54-6.87,4.42-9.94c1.14-1.86,1.49-4.28,3.38-5.62c0.49-0.34,0.71-0.81,0.54-1.33
		c-0.2-0.6-0.69-1.01-1.33-1.04c-0.49-0.03-1.03-0.07-1.48,0.1c-1.74,0.69-3.56,1.21-5.24,1.97c-1.71,0.78-3.56,0.91-5.25,1.21
		c-3.44,0.62-7.02,0.51-10.55,0.26c-2.22-0.15-2.3-0.07-3.06,2.19c-0.04,0.13-0.17,0.23-0.2,0.37c-0.37,1.34-1.18,2.54-1.04,4.05
		c0.29,3.04-0.23,6.09,0.68,9.18c0.49,1.68,0.79,3.56,1.27,5.28c0.63,2.27,1.74,4.39,2.56,6.62c0.27,0.73,0.47,1.64,1.03,2.27
		c1.29,1.45,1.98,3.3,2.78,5.03c0.65,1.41,1.36,2.8,2.07,4.16c0.88,1.69,1.47,3.48,2.06,5.25c0.51,1.51,0.86,3.13,1.21,4.73
		c0.79,3.72,1.27,7.47,1.28,11.25c0.01,1.52-0.5,3.07-0.52,4.65c-0.02,1.26-0.2,2.45-0.61,3.71c-1.18,3.72-3.88,5.67-6.8,7.56
		c-0.67,0.44-1.42,0.6-2.04,0.99c-1.24,0.77-2.58,1.18-3.93,1.4c-1.49,0.24-2.97-0.28-4.46-0.52c-2.45-0.4-4.33-1.78-6.22-3.09
		c-2.18-1.51-4.85-2.57-6.06-5.2c-0.99-2.14-2.39-4.06-3.34-6.27l-24.3-42.7c-0.77-1.36-1.4-2.81-2.1-4.19
		c-0.66-1.31-1.34-2.64-1.93-4.01c-0.61-1.4-1.33-2.74-1.93-4.15c-0.71-1.67-1.71-3.18-2.2-4.98c-0.27-1-0.97-1.87-1.98-1.76
		c-1.4,0.15-2.49,2.85-1.81,4.15c0.61,1.17,0.99,2.49,1.6,3.62c0.51,0.95,0.39,2.06,0.9,2.8c0.86,1.25,0.85,2.74,1.26,4.06
		c0.56,1.79,0.45,3.82,0.83,5.75c0.84,4.33,1.75,8.67,1.17,12.96c-0.13,0.98,0.38,2.11-0.03,3.11c-0.67,1.65-1.4,11.61-2.03,13.27
		c-0.65,1.73-1.06,3.58-1.87,5.22c-0.7,1.43-1.34,2.92-1.97,4.37c-0.63,1.47-1.35,2.9-2.01,4.34c-1,2.17-2.01,4.31-2.89,6.54
		c-0.46,1.16-0.25,1.41-0.79,2.45c-0.81,1.59-0.66,3.97-0.88,5.56c-0.52,3.88-0.62,0.01-1.02,3.96c-0.34,3.4-0.07,6.87-0.03,10.31
		c0.02,1.91,0.35,3.79,0.85,5.62l1.09,3.28l16.19-0.08c0.61-0.05,1-0.25,1.21-0.89c0.27-0.81,0.43-1.62,0.52-2.49l0.16-67.21
		c0-0.21,0.14-0.43,0.22-0.64c0.45,0.94,1.13,1.64,1.58,2.42c0.43,0.74,0.67,1.61,1.2,2.34L477.75,130.96z"/>
	<path class="st2" d="M358.41,152c1.6,0.65,4.48,1.77,6.16,2.27c1.31,0.39,2.63,0.79,3.87,1.31c1.38,0.58,2.91,0.64,4.3,1.06
		c1.12,0.34,2.27,0.48,3.24,0.15c1.59-0.54,3.2-0.47,4.82-0.63c3.29-0.32,6.64,0.33,9.93-0.73c1.21-0.39,2.53-0.76,3.68-1.22
		c2.76-1.09,5.35-2.49,7.84-4.01c2.76-1.69,5.2-3.72,7-6.09c1.57-2.07,3.27-4.16,4.11-6.65c0.58-1.72,1.72-3.3,1.69-5.19
		c-0.03-2.26-0.03-4.52,0.03-6.78c0.12-4.01-0.95-3.54-1.38-7.5c-0.01-0.13-0.02-0.29-0.1-0.39c-1.36-1.69-3.94-8.81-3.79-10.85
		c0.1-1.44,0.1-4.18,0.21-5.59c-1.3-4.82,0.28-5.1,1.03-9.64c0.31-1.9,3.35-5.55,3.53-7.49c0.08-0.81,0.36-1.85,0.9-2.67
		c0.92-1.41,1.48-2.96,2.34-4.4c1.06-1.78,2.19-3.45,4.18-4.49c3-1.56,4.33-5.72,1.5-7.95c-2.39-1.88-4.59-3.88-6.21-6.39
		c-1.01-1.56-2.41-3-3.64-4.5c-0.52-0.63-1.5-1.12-2.43-0.96c-0.65,0.11-1.32,0.54-1.34,1.43l-1.47,29.51l-1.6,23.35
		c-0.89,2.5-0.62,5.13-1.49,7.62c-0.24,0.7-0.27,1.39-0.69,2.11c-0.61,1.05-1.49,1.89-2.19,2.86c-1.83,2.55-3.83,4.99-6.17,7.23
		c-2.57,2.46-5.71,4.41-8.4,6.77c-2.38,2.08-5.14,3.67-8.11,5.08c-1.34,0.64-2.65,1.27-4.08,1.78c-1.6,0.58-3.02,1.41-4.9,1.4
		c-2.74-0.02-5.55,0.28-8.06-0.83c-1.59-0.7-3.48-0.55-4.95-1.49c-1.28-0.82-2.68-1.52-3.87-2.42c-9.78-10.55-6.16-25.67-6.16-25.67
		c0.64-1.39,0.81-2.87,1.39-4.27c0.48-1.15,0.87-2.46,1.36-3.57c0.42-0.94,0.37-1.95,0.91-2.86c0.91-1.55,1.76-3.15,2.28-4.82
		c0.51-1.65,1.36-3.19,2.15-4.7c1.12-2.13,2.22-4.31,3.59-6.35c1.52-2.26,2.68-4.68,4.3-6.9c1.12-1.54,2.03-3.19,3.08-4.76
		c0.7-1.04,1.44-2.04,2.04-3.16c0.9-1.69,2.26-3.2,3.4-4.8c1.39-1.93,2.59-3.98,4.18-5.78c1.51-1.71,2.61-3.63,4.16-5.3
		c0.22-0.24,0.13-0.62-0.05-0.91c-0.25-0.41-0.58-0.21-0.93-0.08c-1,0.36-2.07,0.35-3.13,0.34c-6.75-0.03-13.52,0.53-20.25-0.46
		c-2.25-0.33-4.55-0.32-6.81-0.56c-3.21-0.34-6.42-0.92-9.67-1.05c-1.2-0.05-2.15,0.28-2.59,1.16c-0.47,0.93-0.34,1.96,0.3,2.85
		c0.82,1.14,1.49,2.31,1.62,3.66c0.06,0.58-0.12,1.3,0.21,1.73c1.32,1.76,1.17,3.85,1.53,5.71c0.62,3.26,0.66,6.65,0.61,10
		c-0.13,7.58,0.04,15.16-0.71,22.73c-0.26,2.65-0.04,5.33-0.04,8c-0.14,3.71-0.01,7.41,0.14,11.11
		C340.81,118.39,339.53,137.57,358.41,152z"/>
	<path class="st3" d="M546.3,101.96c0-2.7-2.02-5.96-1.96-8.66c0.05-2.17-0.66-4.12-1.64-6.06c-0.46-0.9-0.65-1.99-0.89-2.93
		c-0.57-2.33-1.51-4.53-2.25-6.79c-0.58-1.76-1.69-3.37-2.4-5.1c-0.83-2.01-1.92-3.88-3.13-5.71c-0.73-1.1-1.37-2.27-2.22-3.29
		c-1.29-1.55-1.91-3.2-1.48-5.12c0.26-1.16,1.49-1.57,2.34-2.18c0.82-0.59,1.65-1.17,2.46-1.79c1.84-1.41,4.12-2.05,6.36-2.75
		c2.9-0.9,5.97-1.24,8.86-2.04c5.3-1.47,10.63-1.81,16.04-1.5c2.04,0.11,4.09,0.67,6.11,1.19c1.38,0.36,2.78,0.72,4.16,1.1
		c1.72,0.48,3.39,1.15,5.01,1.86c2.12,0.93,4.17,2.01,6.27,2.99c4.2,1.97,8.21,4.14,11.87,6.94c2.27,1.74,4.52,3.5,6.81,5.23
		c2.23,1.68,4.04,3.76,6.33,5.41c1.05,0.76,1.62,2.26,2.04,3.53c0.29,0.85,0.88,1.5,1.32,2.2c1.06,1.72,0.82,3.35,0.21,5.03
		c-0.27,0.74-0.31,1.46-0.23,2.2c0.17,1.5-0.11,2.88-0.67,4.34c-0.43,1.12-0.77,2.32-1.19,3.46c-0.58,1.55-1.32,3.05-2.06,4.55
		c-0.74,1.5-1.56,2.96-2.35,4.44c-1.05,1.98-2.12,3.96-3.15,5.94c-0.75,1.43-1.42,2.89-2.18,4.32c-0.75,1.4-1.58,2.77-2.33,4.17
		c-0.71,1.33-1.35,2.69-2.03,4.03c-1.08,2.11-2.19,4.21-3.23,6.32c-0.76,1.54-1.49,3.11-2.2,4.68c-0.59,1.3-1.31,2.58-2.02,3.83
		c-1.14,2-2.07,4.09-3.25,6.06c-0.87,1.45-1.58,2.98-2.33,4.47c-0.81,1.61-1.54,3.31-2.17,5.02c-0.63,1.72-1.49,3.47-2.83,4.87
		c-0.56,0.58-1.42,0.93-2.43,0.9c-2.28-0.06-4.64,0.34-6.84-0.05c-4.05-0.73-8.29-0.2-12.22-1.53c-2.58-0.87-5.02-2.07-7.37-3.38
		c-2.23-1.24-4.49-2.47-6.59-3.89c-3.62-2.44-7.6-1.82-11.59-1.42c-0.84,0.08-1.39,0.66-2.06,0.97c-2.08,0.96-4.46,1.09-6.46,2.23
		c-0.93,0.53-1.47-0.35-2-0.82c-0.45-0.4-0.49-0.92-0.03-1.49c0.77-0.95,1.71-1.75,2.79-2.27c2.43-1.17,4.07-3.06,5.83-4.87
		c2.84-2.93,4.61-6.41,6.35-9.94c1.33-2.69,3.24-4.21,4.1-6.98c1.04-3.35,1.12-5.68,1.97-9.05c0.51-2,0.97-3.33,0.99-5.43
		c0.01-1.49-0.13-5.75-0.13-7.24C546.51,101.96,546.4,101.96,546.3,101.96z M608.27,99.25c0.22-0.5-0.96-2.47-1.3-2.92
		c-1.52-2.07-3.11-4.12-4.77-6.09c-2.16-2.58-4.43-5.1-6.89-7.46c-4.28-4.12-8.79-7.98-14.23-10.8c-1.9-0.98-3.84-1.88-5.82-2.72
		c-1.75-0.74-3.49-1.51-5.25-2.23c-1.87-0.76-3.77-1.4-5.74-1.91c-1.68-0.43-3.29-1.18-5.06-1.22c-2.03-0.05-4.1-0.1-6.08,0.21
		c-1.18,0.18-2.42,0.62-3.49,1.28c-1.5,0.94-2.7,2.15-3.44,3.62c-0.68,1.35-1.82,2.79-1,4.34c0.77,1.45,0.69,2.95,0.92,4.44
		c0.02,0.14,0.01,0.3,0.09,0.41c1.47,2.29,0.17,5.12,1.7,7.39c-0.02,5.17,0.55,10.3,1.07,15.44c0.35,3.43,0.04,6.91,0.26,10.35
		c0.23,3.61-1.14,7.08-0.87,10.67c0.01,0.18-0.03,0.39-0.13,0.54c-1.07,1.53-0.75,3.38-1.25,5.05c-0.44,1.48-0.44,2.95-0.2,4.62
		c0.03,0.21-0.32,0.45-0.46,0.68c-0.72,1.21-1.29,4.01-0.2,4.47c2.85,1.22,5.7,2.76,8.77,3.1c3.28,0.36,6.52,1.38,9.92,1.01
		c5.44-0.65,10.97-0.75,16.2-2.66c2.21-0.81,6.18-1.09,7.97-2.52L608.27,99.25z"/>
	<path class="st3" d="M236.5,137.2c1.09-0.19,1.49,1.01,2.06,1.58c0.7,0.69,0.85,1.53,0.18,2.26c-2.28,2.48-4.61,4.92-6.94,7.36
		c-2.03,2.13-4.66,3.51-7.61,4.53c-1.75,0.61-3.41,1.39-5.12,2.08c-0.22,0.09-0.48,0.16-0.72,0.16c-2.06,0-3.77,0.87-5.6,1.53
		c-2.61,0.94-5.45,1.11-8.29,1.18c-2.87,0.07-5.64-0.51-8.36-1.04c-1.5-0.29-3.01-0.34-4.47-0.64c-4.15-0.87-8.24-1.87-11.86-3.97
		c-1.89-1.09-3.92-2.01-5.41-3.53c-0.9-0.92-1.73-1.91-2.39-2.96c-0.37-0.59-0.74-0.82-1.46-0.8c-3.69,0.11-7.39,0.22-11.08,0.32
		c-0.15,0-0.3,0.01-0.45,0.04c-2.56,0.42-2.75,0.17-2.49-2.04c0.24-2.09,0.81-4.14,1.06-6.24c0.17-1.42,0.38-3.07,1.34-4.42
		c0.14-0.2,0.14-0.5,0.16-0.75c0.37-5,0.68-10,0.91-15.01c0.4-9.08,0.14-18.16,0.26-27.24c0.05-3.88-0.76-7.68-1.28-11.5
		c-0.26-1.92-0.2-4-0.94-5.77c-0.81-1.93-0.17-4.04-1.42-5.82c-0.03-0.04-0.05-0.08-0.04-0.12c0.41-3.12-1.17-6.05-1.21-9.13
		c-0.01-0.83,0.02-1.6-0.72-2.37c-0.57-0.59-0.4-1.56-0.19-2.38c0.14-0.56,0.69-0.36,1.1-0.41c1.67-0.21,3.2,0.55,4.87,0.51
		c4.09-0.09,8.19-0.09,12.29-0.11c0.46,0,1.08-0.22,1.31,0.32c0.18,0.42-0.01,0.84-0.4,1.17c-0.72,0.6-0.77,1.56-1.01,2.25
		c-0.36,1.05-0.94,2.06-1.23,3.15c-0.44,1.64-1.22,3.24-2.07,4.77c-0.47,0.84-0.8,1.79-1,2.6c-0.32,1.32-0.77,2.67-1.28,3.85
		c-0.65,1.5-0.16,3.24-1.42,4.55c-0.11,0.11-0.09,0.33-0.1,0.5c-0.05,1.37-0.45,2.7-0.68,4.04c-1.26,7.15-1.33,14.36-0.48,21.54
		c0.24,2.07,0.23,4.25,0.94,6.2c0.56,1.55,0.8,3.18,1.37,4.74c0.67,1.84,1.79,3.54,2.19,5.47c0.63,3.08,2.79,5.56,4.74,8.09
		c2.11,2.74,5.01,4.87,8.14,6.63c2.64,1.48,5.46,2.73,8.68,3.4c5.29,1.09,10.6,1.42,15.97,1.1c1.92-0.11,3.75-0.82,5.61-1.34
		c3.43-0.97,6.18-2.89,9.28-4.33c2.28-1.05,4.5-2.23,6.58-3.58c0.58-0.38,1.31-0.47,1.75,0.2c2.01,3.04,4.47,5.83,6.85,8.64
		C237.02,137.16,236.63,136.65,236.5,137.2z"/>
</g>
</svg>
