<?xml version="1.0" encoding="utf-8"?>
<!-- Generator: Adobe Illustrator 24.1.2, SVG Export Plug-In . SVG Version: 6.00 Build 0)  -->
<svg version="1.1" id="Layer_1" xmlns="http://www.w3.org/2000/svg" xmlns:xlink="http://www.w3.org/1999/xlink" x="0px" y="0px"
	 viewBox="0 0 614 132" style="enable-background:new 0 0 614 132;" xml:space="preserve">
<style type="text/css">
	.st0{enable-background:new    ;}
	.st1{fill:#F2F0E7;}
</style>
<g class="st0">
	<path class="st1" d="M24.1,112.1c-2.73-2.07-4.97-4.66-6.71-7.77c-1.74-3.11-3.11-6.4-4.1-9.89c-0.99-3.48-1.65-7.09-1.98-10.81
		c-0.33-3.72-0.45-7.28-0.35-10.67c0.85-2.54,1.88-4.88,3.11-6.99c1.22-2.12,2.59-4.14,4.1-6.08c1.51-1.93,3.08-3.77,4.73-5.51
		c1.65-1.74,3.27-3.51,4.87-5.3c0.56,0,1.08,0.14,1.55,0.42c0.38-1.04,0.94-1.93,1.7-2.68c0.75-0.75,1.55-1.43,2.4-2.05
		c0.85-0.61,1.7-1.22,2.54-1.84c0.85-0.61,1.55-1.34,2.12-2.19c2.35-0.56,4.45-1.36,6.29-2.4c1.84-1.04,3.6-2.17,5.3-3.39
		c1.7-1.22,3.44-2.35,5.23-3.39c1.79-1.04,3.86-1.84,6.22-2.4c0.85-0.94,1.91-1.74,3.18-2.4c1.27-0.66,2.54-1.27,3.81-1.84
		c1.27-0.57,2.49-1.18,3.67-1.84c1.18-0.66,2.14-1.55,2.9-2.68c0.57,0.75,1.36,1.01,2.4,0.78c1.04-0.23,1.98-0.5,2.83-0.78
		c0.56-0.09,1.04,0,1.41,0.28c0.38,0.28,0.73,0.59,1.06,0.92c0.33,0.33,0.61,0.54,0.85,0.64c0.23,0.09,0.49-0.19,0.78-0.85
		c0.75,0.09,0.96,0.42,0.64,0.99c-0.33,0.57-0.54,0.94-0.64,1.13c0.94-0.19,1.72-0.02,2.33,0.49c0.61,0.52,1.58,0.87,2.9,1.06
		c0.47,0.47,0.61,0.85,0.42,1.13c-0.19,0.28-0.33,0.75-0.42,1.41c3.39,1.04,5.56,2.66,6.5,4.88c0.94,2.21,1.04,4.52,0.28,6.92
		c-0.75,2.4-2.14,4.62-4.17,6.64c-2.03,2.03-4.26,3.37-6.71,4.03c-2.92,0.75-5.63,1.51-8.12,2.26c-2.5,0.75-4.9,1.6-7.21,2.54
		c-2.31,0.94-4.48,2.05-6.5,3.32c-2.03,1.27-3.79,2.75-5.3,4.45c-2.64,0.75-5.02,1.79-7.14,3.11c-2.12,1.32-4.1,2.78-5.93,4.38
		c-1.84,1.6-3.6,3.27-5.3,5.02c-1.7,1.74-3.39,3.46-5.09,5.16c0,1.6-0.28,2.83-0.85,3.67s-1.18,1.7-1.84,2.54
		c0.19,1.79,0.59,3.32,1.2,4.59c0.61,1.27,1.25,2.57,1.91,3.88c7.53,2.26,15.52,3.65,23.95,4.17c8.43,0.52,16.79,0.83,25.08,0.92
		c0.85,1.13,1.81,2.19,2.9,3.18c1.08,0.99,2.07,2,2.97,3.04c0.89,1.04,1.6,2.24,2.12,3.6c0.52,1.37,0.64,2.99,0.35,4.87
		c-1.6,1.6-3.34,3.13-5.23,4.59c-1.89,1.46-3.77,2.9-5.65,4.31c-0.85,0.09-1.86,0.09-3.04,0c-1.18-0.09-2.4-0.14-3.67-0.14
		s-2.54,0.07-3.81,0.21c-1.27,0.14-2.47,0.45-3.6,0.92c-5.93-0.19-12.01-0.92-18.23-2.19c-6.22-1.27-11.96-2.8-17.24-4.59
		c-1.04-1.22-2.12-2.38-3.25-3.46C27.49,113.35,25.98,112.57,24.1,112.1z"/>
	<path class="st1" d="M105.2,54.46c-0.19-1.22-0.42-1.98-0.71-2.26c0.66-1.7,1.15-3.37,1.48-5.02c0.33-1.65,0.59-3.23,0.78-4.73
		c0.19-1.32,0.4-2.54,0.64-3.67c0.23-1.13,0.54-2.21,0.92-3.25c1.6-0.38,2.8-1.06,3.6-2.05c0.8-0.99,1.44-1.86,1.91-2.61
		c1.7-0.09,2.8,0.14,3.32,0.71c0.52,0.57,1.11,1.51,1.77,2.83c0.47,1.04,1.13,2.14,1.98,3.32c0.85,1.18,2.12,2.1,3.81,2.75
		c0.28,1.04,0.61,2.03,0.99,2.97c0.38,0.94,0.8,1.93,1.27,2.97c0.85,1.98,1.65,4.03,2.4,6.15c0.75,2.12,1.18,4.12,1.27,6
		c-1.13,2.17-2,4.66-2.61,7.49c-0.61,2.83-0.99,5.68-1.13,8.55c-0.14,2.88-0.07,5.63,0.21,8.27c0.28,2.64,0.75,4.85,1.41,6.64
		l0.85,2.26l3.11-0.28c3.39-0.85,6.45-1.81,9.18-2.9c2.73-1.08,5.27-2.38,7.63-3.88c2.35-1.51,4.61-3.23,6.78-5.16
		c2.17-1.93,4.43-4.21,6.78-6.85c2.26-2.64,4.28-5.63,6.08-8.97c1.79-3.34,3.27-6.8,4.45-10.38c1.18-3.58,2.09-7.16,2.75-10.74
		c0.66-3.58,1.08-6.92,1.27-10.03c1.79-0.85,2.78-2.21,2.97-4.1l-0.42-1.84c-0.28-0.47-0.4-0.92-0.35-1.34
		c0.05-0.42,0.16-0.82,0.35-1.2c0.75-2.17,2.35-3.77,4.8-4.8c1.7,1.13,3.27,2.36,4.73,3.67c1.46,1.32,2.8,2.64,4.03,3.96
		c0.19,2.54,0.57,4.73,1.13,6.57c0.57,1.84,1.18,3.6,1.84,5.3c0.66,1.6,1.25,3.16,1.77,4.66c0.52,1.51,0.87,3.34,1.06,5.51
		c-0.94,2.83-1.62,5.49-2.05,7.98c-0.42,2.5-0.83,5.11-1.2,7.84l-0.28,1.55c-1.7,2.92-3.37,5.91-5.02,8.97
		c-1.65,3.06-2.99,5.72-4.03,7.98c-0.56,0.57-1.06,1.23-1.48,1.98c-0.42,0.75-0.83,1.51-1.2,2.26c-0.19,0.28-0.45,0.75-0.78,1.41
		c-0.33,0.66-0.64,1.13-0.92,1.41l-3.39-1.27l-0.85,4.38l-2.26,0.56l-1.7,1.98c-2.17,3.77-4.45,6.92-6.85,9.47s-5.09,4.8-8.05,6.78
		c-2.97,1.98-6.31,3.84-10.03,5.58c-3.72,1.74-7.98,3.6-12.79,5.58c-1.89-0.28-3.51-0.45-4.87-0.49c-1.37-0.05-2.71-0.12-4.03-0.21
		c-1.32,0-2.59-0.05-3.81-0.14c-1.23-0.09-2.64-0.23-4.24-0.42c-0.38-0.85-0.9-1.46-1.55-1.84c-0.66-0.38-1.27-0.56-1.84-0.56
		c-1.89-0.94-3.3-2.26-4.24-3.96c-0.94-1.7-1.93-3.58-2.97-5.65c-0.47-1.13-0.97-2.26-1.48-3.39c-0.52-1.13-1.15-2.21-1.91-3.25
		l2.83-0.85l-3.67-4.24c-0.28-0.28-0.59-0.56-0.92-0.85c-0.33-0.28-0.64-0.61-0.92-0.99v-2.68c-0.38-7.72-0.54-14.86-0.49-21.41
		c0.05-6.54,0.92-12.31,2.61-17.31L105.2,54.46z"/>
	<path class="st1" d="M197.46,60.67c0.28-1.41,0.47-2.57,0.56-3.46c0.09-0.89-0.24-1.86-0.99-2.9c0.38-1.5,0.68-2.68,0.92-3.53
		c0.23-0.85,0.26-2.02,0.07-3.53c0.85-2.45,2.14-4.52,3.89-6.22c1.74-1.7,3.65-3.13,5.72-4.31c2.07-1.18,4.24-2.17,6.5-2.97
		c2.26-0.8,4.38-1.48,6.36-2.05c0-0.38-0.19-0.57-0.56-0.57c-0.38,0-0.47-0.23-0.28-0.71c5.09-0.94,10.19-2.31,15.33-4.1
		c5.13-1.79,10.38-3.39,15.75-4.8c5.37-1.41,10.88-2.28,16.53-2.61c5.65-0.33,11.59,0.4,17.8,2.19c0.38,1.13,0.89,2.21,1.55,3.25
		c0.66,1.04,1.34,2.05,2.05,3.04c0.71,0.99,1.34,1.96,1.91,2.9c0.56,0.94,0.89,1.93,0.99,2.97c1.13,1.04,2.05,2.14,2.76,3.32
		c0.71,1.18,0.82,2.76,0.35,4.73c-1.04,0.75-2.12,1.51-3.25,2.26c-1.13,0.75-2.31,1.46-3.53,2.12c-4.24-1.04-8.48-1.41-12.72-1.13
		c-4.24,0.28-8.05,0.61-11.44,0.99c-1.04-1.13-2.26-1.67-3.67-1.62c-1.41,0.05-2.9,0.28-4.45,0.71c-1.55,0.42-3.09,0.85-4.59,1.27
		c-1.51,0.42-2.92,0.54-4.24,0.35c-1.04,0.94-2.4,1.58-4.1,1.91c-1.7,0.33-3.49,0.59-5.37,0.78c-0.09,0.47,0,0.8,0.28,0.99
		c0.28,0.19,0.33,0.57,0.14,1.13c0.66,0.85,1.55,1.44,2.68,1.77c1.13,0.33,2.28,0.64,3.46,0.92c1.18,0.28,2.24,0.68,3.18,1.2
		c0.94,0.52,1.55,1.34,1.84,2.47c1.7,0.09,3.15,0.54,4.38,1.34c1.22,0.8,2.26,1.77,3.11,2.9c0.85,1.13,1.46,2.33,1.84,3.6
		c0.38,1.27,0.52,2.43,0.42,3.46c0.38,0.94,0.78,1.32,1.2,1.13c0.42-0.19,0.92,0.05,1.48,0.71c0.38,1.41,1.25,2.9,2.61,4.45
		c1.36,1.55,2.42,3.23,3.18,5.02c0.19,2.83,0.35,5.37,0.49,7.63c0.14,2.26-0.26,4.47-1.2,6.64c-1.6,4.15-3.91,7.87-6.92,11.16
		c-3.02,3.3-6.43,6.19-10.24,8.69c-3.81,2.5-7.84,4.66-12.08,6.5s-8.43,3.37-12.57,4.59c-0.38-0.09-0.83-0.09-1.34,0
		c-0.52,0.09-0.64-0.19-0.35-0.85c-0.85,0.75-1.81,1.22-2.9,1.41c-1.08,0.19-2.26,0.26-3.53,0.21c-1.27-0.05-2.54-0.12-3.81-0.21
		c-1.27-0.09-2.52-0.05-3.74,0.14c-0.75-0.75-1.44-1.51-2.05-2.26c-0.61-0.75-1.11-1.65-1.48-2.68c-0.47-0.09-0.68-0.4-0.64-0.92
		c0.05-0.52-0.17-0.78-0.64-0.78c0-0.38,0.05-0.66,0.14-0.85c0.09-0.19,0.19-0.38,0.28-0.57c0.38-0.28,0.54-0.5,0.49-0.64
		c-0.05-0.14-0.19-0.28-0.42-0.42c-0.24-0.14-0.47-0.3-0.71-0.5c-0.24-0.19-0.31-0.42-0.21-0.71c0.47-0.85,0.64-1.86,0.49-3.04
		c-0.14-1.18-0.26-2.38-0.35-3.6c-0.1-1.22,0-2.38,0.28-3.46c0.28-1.08,1.08-2,2.4-2.76c3.86,0.38,7.51,0.19,10.95-0.56
		c3.44-0.75,6.69-1.79,9.75-3.11c3.06-1.32,5.98-2.75,8.76-4.31c2.78-1.55,5.49-2.99,8.12-4.31c0.28-0.94,0.73-1.74,1.34-2.4
		c0.61-0.66,1.25-1.29,1.91-1.91c0.66-0.61,1.27-1.27,1.84-1.98c0.56-0.71,0.99-1.58,1.27-2.61c0.09-0.38,0.09-0.66,0-0.85
		c-0.09-0.19-0.24-0.35-0.42-0.5c-0.19-0.14-0.38-0.3-0.56-0.49c-0.19-0.19-0.28-0.47-0.28-0.85c-0.28-0.09-0.54-0.19-0.78-0.28
		c-0.24-0.09-0.45-0.14-0.64-0.14c-2.45-1.22-5.04-2.26-7.77-3.11c-2.73-0.85-5.04-1.79-6.92-2.83c-1.13,0.75-2.26,0.94-3.39,0.56
		c-1.13-0.38-2.5-0.75-4.1-1.13c-3.96-0.19-7.7-0.57-11.23-1.13c-3.53-0.56-6.95-1.55-10.24-2.97c-0.19-0.56-0.42-1.06-0.71-1.48
		c-0.28-0.42-0.94-0.54-1.98-0.35c-0.66-0.94-1.34-1.81-2.05-2.61C198.66,62.63,198.02,61.71,197.46,60.67z"/>
	<path class="st1" d="M282.09,44.71c-0.1-0.75-0.26-1.43-0.49-2.05c-0.24-0.61-0.49-1.29-0.78-2.05c-0.47-1.13-0.9-2.35-1.27-3.67
		c-0.38-1.32-0.56-2.87-0.56-4.66c0.19-0.94,0.42-1.62,0.71-2.05c0.28-0.42,0.56-0.78,0.85-1.06l0.56-2.54h2.12
		c0.75,0.09,1.53,0.14,2.33,0.14c0.8,0,1.58,0,2.33,0c3.58,0,7.25-0.14,11.02-0.42c3.77-0.28,7.63-0.61,11.59-0.99
		c4.33-0.57,8.99-0.99,13.99-1.27c0.47-1.04,0.78-1.7,0.92-1.98c0.14-0.28,0.3-0.61,0.49-0.99l1.55-0.85
		c2.17-0.09,3.67,0.17,4.52,0.78c0.85,0.61,1.5,1.2,1.98,1.77c2.45-0.19,4.95-0.45,7.49-0.78c2.54-0.33,5.18-0.68,7.91-1.06
		c3.77-0.47,7.58-0.94,11.44-1.41c3.86-0.47,7.63-0.71,11.3-0.71c1.6,0,3.11,0.05,4.52,0.14c1.41,0.09,2.78,0.24,4.1,0.42l1.7,1.27
		c0.38,0.66,0.85,1.27,1.41,1.84s1.22,1.13,1.98,1.7c1.41,1.13,2.8,2.54,4.17,4.24c1.37,1.7,1.86,4.19,1.48,7.49l-0.71,1.41
		c-0.38,0.38-0.85,0.75-1.41,1.13l-1.41,1.84h-1.55c-0.94,0-1.65,0.07-2.12,0.21c-0.47,0.14-1.04,0.35-1.7,0.64
		c-0.38,0.19-0.8,0.35-1.27,0.5c-0.47,0.14-0.99,0.31-1.55,0.49c-1.04-0.09-1.84-0.14-2.4-0.14c-0.56,0-1.22,0-1.98,0
		c-2.83,0-5.89,0.19-9.18,0.57c-3.3,0.38-6.5,0.8-9.61,1.27c-2.26,0.28-4.43,0.54-6.5,0.78c-2.07,0.24-3.96,0.45-5.65,0.64
		c-0.94,2.45-1.79,4.62-2.54,6.5c-0.75,1.89-1.55,3.77-2.4,5.65c-0.85,1.89-1.65,3.79-2.4,5.72c-0.75,1.93-1.46,4.08-2.12,6.43
		c-1.13,1.7-2.07,3.32-2.83,4.88c-0.76,1.55-1.37,3.32-1.84,5.3c-1.41,1.6-2.43,3.34-3.04,5.23c-0.61,1.89-1.15,3.49-1.62,4.8
		l-0.56,2.12c-0.66,0.66-1.06,1.18-1.2,1.55c-0.14,0.38-0.4,0.8-0.78,1.27c-0.28,1.22-0.66,2.4-1.13,3.53
		c-0.19,0.47-0.38,0.97-0.57,1.48c-0.19,0.52-0.24,0.92-0.14,1.2c-0.19,1.04-0.47,1.84-0.85,2.4c0,0.57-0.05,1.13-0.14,1.7
		c-0.09,0.57-0.19,1.13-0.28,1.7c-0.19,0.66-0.33,1.25-0.42,1.77c-0.09,0.52-0.05,1.01,0.14,1.48c0.28,0.38,0.56,0.75,0.85,1.13
		c0.28,0.38,0.52,0.85,0.71,1.41c0.19,0.19,0.42,0.33,0.71,0.42c0.28,0.09,0.52,0.24,0.71,0.42c0.75,0.66,1.46,1.04,2.12,1.13
		l1.41,1.7c0.57,3.39,0.05,6.03-1.55,7.91c-1.7,2.17-4.52,3.25-8.48,3.25l-1.98-0.14c-0.66-0.66-1.04-1.08-1.13-1.27
		c-0.85-0.38-1.55-0.68-2.12-0.92c-0.57-0.24-1.08-0.68-1.55-1.34c-0.19-0.19-0.42-0.3-0.71-0.35c-0.28-0.05-0.52-0.16-0.71-0.35
		c-0.94-0.28-1.7-0.61-2.26-0.99l-1.55-0.85c0.09-0.94,0.14-1.6,0.14-1.98c-0.75-1.04-1.34-2.17-1.77-3.39
		c-0.42-1.22-0.78-2.5-1.06-3.82c-0.28-1.04-0.54-1.98-0.78-2.83c-0.24-0.85-0.59-1.6-1.06-2.26c-0.19-6.59,0.42-12.13,1.84-16.6
		c1.41-4.47,2.97-8.83,4.66-13.07c0.94-2.26,1.84-4.57,2.68-6.92c0.85-2.35,1.6-4.75,2.26-7.21l1.55-1.55
		c0.66-0.57,1.08-0.89,1.27-0.99c0-1.22,0.23-2.42,0.71-3.6c0.47-1.18,0.99-2.38,1.55-3.6c0.38-0.75,0.73-1.51,1.06-2.26
		c0.33-0.75,0.54-1.41,0.64-1.98c-0.66,0-1.25,0.02-1.77,0.07c-0.52,0.05-1.06,0.12-1.62,0.21c-1.23,0.28-2.4,0.42-3.53,0.42
		c-0.85,0-1.46-0.05-1.84-0.14c-0.75,0.38-1.46,0.59-2.12,0.64c-0.66,0.05-1.32,0.07-1.98,0.07h-1.7h-1.7
		c-1.13,0-2.03,0.14-2.68,0.42c-1.32,0-2.17,0-2.54,0c-0.38,0-0.8,0-1.27,0h-1.7h-1.7c-0.75,0-1.6-0.07-2.54-0.21
		c-0.94-0.14-1.93-0.49-2.97-1.06l-0.99-1.13c-0.57-1.04-1.08-1.6-1.55-1.7l-1.55-0.42V44.71z"/>
	<path class="st1" d="M396.53,124.96c-4.15,0.56-7.91,0.38-11.3-0.57s-6.43-2.4-9.11-4.38c-2.68-1.98-4.99-4.33-6.92-7.06
		c-1.93-2.73-3.51-5.65-4.73-8.76c-0.85-6.4-0.61-12.22,0.71-17.45c1.32-5.23,3.25-10.05,5.79-14.48c2.54-4.43,5.44-8.57,8.69-12.43
		c3.25-3.86,6.38-7.58,9.4-11.16c0.66,0.28,1.2,0.28,1.62,0c0.42-0.28,0.8-0.66,1.13-1.13c0.33-0.47,0.71-0.94,1.13-1.41
		c0.42-0.47,0.92-0.8,1.48-0.99c0.38-0.85,0.87-1.55,1.48-2.12c0.61-0.57,1.27-1.11,1.98-1.62c0.71-0.52,1.37-1.06,1.98-1.62
		c0.61-0.57,1.15-1.27,1.62-2.12c0.94-0.19,1.77-0.52,2.47-0.99c0.71-0.47,1.36-0.99,1.98-1.55c0.61-0.56,1.25-1.08,1.91-1.55
		c0.66-0.47,1.46-0.85,2.4-1.13v-1.84c2.07-0.94,3.58-1.98,4.52-3.11c0.94-1.13,2.07-2.59,3.39-4.38c1.04-0.09,1.86-0.14,2.47-0.14
		c0.61,0,1.58-0.09,2.9-0.28c0.85-1.6,1.65-2.78,2.4-3.53c0.75-0.75,1.84-1.6,3.25-2.54c1.41,0.75,2.92,1.2,4.52,1.34
		c1.6,0.14,3.06,0.87,4.38,2.19c0.09,1.13,0.42,2,0.99,2.61c0.56,0.61,1.18,1.18,1.84,1.7c0.66,0.52,1.32,1.06,1.98,1.62
		c0.66,0.57,1.08,1.37,1.27,2.4c0.47,0,0.78-0.09,0.92-0.28c0.14-0.19,0.45-0.23,0.92-0.14c0.19,0.76,0.38,1.37,0.57,1.84
		c0.19,0.47,0.4,0.9,0.63,1.27c0.23,0.38,0.47,0.8,0.71,1.27c0.23,0.47,0.45,1.04,0.64,1.7c-0.47,1.13-0.9,2.33-1.27,3.6
		c-0.38,1.27-1.13,2.14-2.26,2.61c0,0.75,0.28,1.16,0.85,1.2c0.57,0.05,0.89,0.4,0.99,1.06c0.09,0.85-0.05,1.55-0.42,2.12
		c2.64,4.43,5.04,9.07,7.21,13.92c2.17,4.85,4.61,9.49,7.35,13.92c-0.19,1.32-0.12,2.61,0.21,3.88c0.33,1.27,0.75,2.52,1.27,3.74
		c0.52,1.23,1.01,2.45,1.48,3.67c0.47,1.22,0.8,2.45,0.99,3.67c0.19,1.6,0.19,3.32,0,5.16c-0.19,1.84-0.57,3.6-1.13,5.3
		c-0.56,1.7-1.32,3.27-2.26,4.73c-0.94,1.46-2.03,2.57-3.25,3.32c-1.51,1.89-3.39,3.42-5.65,4.59c-2.26,1.18-4.33,2.57-6.22,4.17
		c-1.32,0.75-2.73,1.3-4.24,1.62c-1.51,0.33-3.06,0.68-4.66,1.06c-1.22,0.75-2.68,1.48-4.38,2.19c-1.7,0.71-3.44,1.34-5.23,1.91
		c-1.79,0.57-3.58,1.01-5.37,1.34c-1.79,0.33-3.39,0.4-4.8,0.21c-3.39,1.23-6.69,2.07-9.89,2.54
		C404.63,126.14,400.86,125.9,396.53,124.96z M398.36,73.53c-0.94,2.17-2.05,4.12-3.32,5.86c-1.27,1.74-2.52,3.51-3.74,5.3
		c-1.23,1.79-2.28,3.7-3.18,5.72c-0.9,2.03-1.39,4.4-1.48,7.13c1.88,1.6,4.12,2.57,6.71,2.9c2.59,0.33,5.25,0.38,7.98,0.14
		c2.73-0.23,5.46-0.59,8.19-1.06c2.73-0.47,5.18-0.71,7.35-0.71c0-0.85,0.38-1.27,1.13-1.27c3.96-0.38,7.63-1.48,11.02-3.32
		c3.39-1.84,6.92-3.7,10.6-5.58c0.47-1.13,1.08-2.12,1.84-2.97c0.75-0.85,1.18-2.07,1.27-3.67c-0.47-0.85-0.78-1.55-0.92-2.12
		s-0.21-1.41-0.21-2.54c-2.45-3.39-4.57-7.09-6.36-11.09c-1.79-4-3.86-7.79-6.22-11.37c-0.19,0.47-0.57,0.94-1.13,1.41
		c-0.56,0.47-1.18,0.38-1.84-0.28c-0.28,0.94-0.71,1.58-1.27,1.91c-0.57,0.33-1.2,0.49-1.91,0.49c-0.71,0-1.41-0.14-2.12-0.42
		c-0.71-0.28-1.34-0.66-1.91-1.13c-3.3,2.64-6.57,5.18-9.82,7.63c-3.25,2.45-6.19,5.32-8.83,8.62c-0.47,0.28-0.76,0.38-0.85,0.28
		C399.26,73.3,398.93,73.34,398.36,73.53z"/>
	<path class="st1" d="M482.85,126.37c-0.94,0-2.4-0.14-4.38-0.42c-1.51-1.6-2.85-3.79-4.03-6.57c-1.18-2.78-2.07-5.74-2.68-8.9
		c-0.61-3.15-0.9-6.31-0.85-9.47c0.05-3.15,0.59-5.96,1.62-8.41c0-0.09,0.45-1.22,1.34-3.39c0.89-2.17,2.05-4.92,3.46-8.26
		c1.41-3.34,3.01-7.06,4.8-11.16c1.79-4.1,3.58-8.12,5.37-12.08c1.79-3.96,3.51-7.56,5.16-10.81c1.65-3.25,3.08-5.77,4.31-7.56
		c0.85-1.32,1.62-2.59,2.33-3.82c0.71-1.22,1.39-2.35,2.05-3.39c1.04-1.7,2-3.27,2.9-4.73c0.89-1.46,1.88-2.78,2.97-3.96
		c1.08-1.18,2.28-2.21,3.6-3.11c1.32-0.89,2.92-1.67,4.8-2.33c1.13,0.47,2.12,0.97,2.97,1.48c0.85,0.52,1.6,1.16,2.26,1.91
		l0.42,1.98c0.19,0.66,0.49,1.11,0.92,1.34c0.42,0.24,0.78,0.35,1.06,0.35c1.22,0.28,2.28,0.59,3.18,0.92
		c0.89,0.33,1.86,0.54,2.9,0.64c0.38,0.56,0.73,1.13,1.06,1.7c0.33,0.56,0.68,1.08,1.06,1.55c1.88,2.73,3.44,5.37,4.66,7.91
		c1.22,2.54,1.22,5.32,0,8.34l0.14,1.55c0.47,0.66,0.71,1.27,0.71,1.84c0,0.57-0.09,1.37-0.28,2.4c-0.1,0.75-0.17,1.58-0.21,2.47
		c-0.05,0.9,0.07,1.86,0.35,2.9l0.99,1.13c1.51,0.75,2.97,1.13,4.38,1.13c1.88,0,3.58-0.42,5.09-1.27c1.51-0.85,2.92-1.7,4.24-2.54
		c1.04-0.75,2-1.36,2.9-1.84c0.89-0.47,1.77-0.8,2.61-0.99c1.98-1.88,3.79-3.55,5.44-5.02c1.65-1.46,3.37-2.94,5.16-4.45
		c3.39-2.73,6.69-5.67,9.89-8.83c3.2-3.15,5.74-7.09,7.63-11.8c1.04-0.66,2.21-0.99,3.53-0.99c1.32,0,2.64,0.26,3.96,0.78
		c1.32,0.52,2.63,1.11,3.96,1.77c0.28,0.19,0.54,0.33,0.78,0.42c0.23,0.09,0.49,0.24,0.78,0.42c0,1.04,0.42,1.98,1.27,2.83
		c0.47,0.38,0.8,0.61,0.99,0.71c0.19,0.09,0.38,0.19,0.57,0.28c0.75,0.47,1.39,0.9,1.91,1.27c0.52,0.38,0.92,0.9,1.2,1.55
		c0.85,2.54,2.26,4.52,4.24,5.93c-0.19,1.04-0.14,2.05,0.14,3.04c0.28,0.99,0.61,1.96,0.99,2.9c0.19,0.38,0.33,0.73,0.42,1.06
		c0.09,0.33,0.23,0.73,0.42,1.2l-3.11-0.28l0.42,3.11c0.28,1.6,0.16,3.39-0.35,5.37c-0.52,1.98-1.11,3.53-1.77,4.66
		c0.19,2.83,0.28,5.06,0.28,6.71c0,1.65-0.09,3.18-0.28,4.59c-0.19,1.41-0.5,2.75-0.92,4.03s-0.97,2.61-1.62,4.03
		c0.38,7.16-0.45,13.7-2.47,19.64c-2.03,5.93-4.22,11.49-6.57,16.67c-0.28,0.66-0.57,1.27-0.85,1.84c-0.28,0.57-0.52,1.13-0.71,1.7
		c-1.04,0.28-1.98,0.61-2.83,0.99c-0.85,0.38-1.65,0.8-2.4,1.27c-1.04,0.66-2.07,1.2-3.11,1.62c-1.04,0.42-2.12,0.64-3.25,0.64
		c-4.52-3.3-6.85-8.99-6.99-17.1c-0.14-8.1,1.58-18.41,5.16-30.94c0.66-0.47,0.94-1.18,0.85-2.12v-1.55l-1.41-0.14
		c-0.47,0-0.9,0.05-1.27,0.14c-0.38,0.1-0.66,0.52-0.85,1.27c-3.02,2.17-6.29,4.4-9.82,6.71c-3.53,2.31-7.18,4.43-10.95,6.36
		c-3.77,1.93-7.61,3.53-11.52,4.8c-3.91,1.27-7.7,1.91-11.37,1.91c-9.42,0-16.53-4.8-21.33-14.41l-1.27-2.54l-1.41,2.26
		c-0.28,0.47-0.78,1.39-1.48,2.75c-0.71,1.37-1.41,2.95-2.12,4.73c-0.71,1.79-1.32,3.63-1.84,5.51c-0.52,1.89-0.68,3.53-0.49,4.95
		c-1.13,1.04-2.24,2.21-3.32,3.53c-1.08,1.32-1.86,2.83-2.33,4.52c-0.19,0.47-0.24,0.92-0.14,1.34c0.09,0.42,0.23,0.87,0.42,1.34
		c-0.09,0.66-0.28,1.13-0.56,1.41c-0.28,0.28-0.61,0.57-0.99,0.85c-0.47,0.47-0.94,0.97-1.41,1.48c-0.47,0.52-0.9,1.11-1.27,1.77
		c-0.19,0.56-0.33,1.15-0.42,1.77c-0.09,0.61-0.19,1.15-0.28,1.62c0,1.04-0.14,1.74-0.42,2.12c-0.94,1.98-1.77,3.6-2.47,4.87
		c-0.71,1.27-1.39,2.24-2.05,2.9c-0.66,0.66-1.34,1.11-2.05,1.34C484.62,126.25,483.79,126.37,482.85,126.37z"/>
</g>
</svg>
