<?xml version="1.0" encoding="utf-8"?>
<!-- Generator: Adobe Illustrator 24.1.2, SVG Export Plug-In . SVG Version: 6.00 Build 0)  -->
<svg version="1.1" id="Layer_1" xmlns="http://www.w3.org/2000/svg" xmlns:xlink="http://www.w3.org/1999/xlink" x="0px" y="0px"
	 viewBox="0 0 791 132" style="enable-background:new 0 0 791 132;" xml:space="preserve">
<style type="text/css">
	.st0{enable-background:new    ;}
	.st1{fill:#F2F0E7;}
</style>
<g class="st0">
	<path class="st1" d="M18.87,115.59c-0.75-0.75-1.3-1.65-1.62-2.68c-0.33-1.04-1.11-1.88-2.33-2.54c-0.19-1.41-0.45-3.04-0.78-4.87
		c-0.33-1.84-0.66-3.72-0.99-5.65c-0.33-1.93-0.56-3.86-0.71-5.79c-0.14-1.93-0.07-3.7,0.21-5.3c0.19-0.85,0.49-1.65,0.92-2.4
		c0.42-0.75,0.85-1.48,1.27-2.19c0.42-0.71,0.75-1.43,0.99-2.19c0.23-0.75,0.26-1.51,0.07-2.26c0.57-0.09,0.92-0.4,1.06-0.92
		c0.14-0.52,0.59-0.68,1.34-0.5c0.66-2.07,1.36-4,2.12-5.79c0.75-1.79,1.55-3.53,2.4-5.23c0.85-1.7,1.72-3.41,2.61-5.16
		c0.89-1.74,1.72-3.7,2.47-5.86c-1.6-1.51-2.75-3.13-3.46-4.88c-0.71-1.74-1.25-3.51-1.62-5.3c-0.38-1.79-0.66-3.6-0.85-5.44
		c-0.19-1.84-0.57-3.7-1.13-5.58c1.13-1.7,2.49-3.08,4.1-4.17c1.6-1.08,3.37-1.98,5.3-2.68c1.93-0.71,4.03-1.27,6.29-1.7
		s4.66-0.92,7.21-1.48c4.52-1.41,8.57-2.52,12.15-3.32c3.58-0.8,7.06-1.46,10.46-1.98c3.39-0.52,6.92-0.99,10.6-1.41
		s7.91-1.06,12.72-1.91c0.09,0.28,0.26,0.42,0.49,0.42c0.23,0,0.54,0,0.92,0c0.28,0.66,0.8,0.99,1.55,0.99
		c0-0.28-0.02-0.54-0.07-0.78c-0.05-0.23-0.07-0.45-0.07-0.64c0.19,0,0.45,0.05,0.78,0.14c0.33,0.09,0.61,0.19,0.85,0.28
		c0.23,0.09,0.45,0.07,0.64-0.07c0.19-0.14,0.23-0.45,0.14-0.92c1.13,1.98,2.59,3.6,4.38,4.88c1.79,1.27,3.77,2.38,5.93,3.32
		c0.09,0.85,0.12,1.46,0.07,1.84c-0.05,0.38-0.12,0.73-0.21,1.06c-0.1,0.33-0.14,0.71-0.14,1.13s0.09,1.01,0.28,1.77
		c-1.51,2.54-3.23,4.52-5.16,5.93c-1.93,1.41-3.98,2.5-6.15,3.25c-2.17,0.75-4.45,1.32-6.85,1.7c-2.4,0.38-4.85,0.78-7.35,1.2
		c-2.5,0.42-5.02,1.01-7.56,1.77c-2.54,0.76-5.04,1.89-7.49,3.39c-0.75-0.28-1.44-0.4-2.05-0.35c-0.61,0.05-1.25,0.17-1.91,0.35
		c-0.66,0.19-1.39,0.38-2.19,0.56c-0.8,0.19-1.77,0.19-2.9,0c-0.75,0.66-1.62,1.13-2.61,1.41c-0.99,0.28-2,0.57-3.04,0.85
		c0.47,1.04,0.68,2.07,0.64,3.11c-0.05,1.04,0.07,1.93,0.35,2.68c3.96,0.38,8.34,0.35,13.14-0.07s9.51-0.73,14.13-0.92
		c0.09,0.47,0.05,0.8-0.14,0.99c-0.19,0.19-0.28,0.52-0.28,0.99c0.85,0.56,1.65,1.27,2.4,2.12c0.75,0.85,1.53,1.67,2.33,2.47
		c0.8,0.8,1.62,1.46,2.47,1.98c0.85,0.52,1.84,0.73,2.97,0.64c0.47,0.94,0.8,1.93,0.99,2.97c0.19,1.04,0.05,2.12-0.42,3.25
		c-1.89,1.23-3.72,2.47-5.51,3.74c-1.79,1.27-3.65,2.43-5.58,3.46c-1.93,1.04-4.03,1.88-6.29,2.54c-2.26,0.66-4.71,0.94-7.35,0.85
		c-0.47,0-0.87,0-1.2,0c-0.33,0-0.73-0.19-1.2-0.57c-0.94,0.47-2.19,0.64-3.74,0.49c-1.55-0.14-2.85,0.02-3.89,0.5
		c-1.32-0.47-2.85-0.71-4.59-0.71c-1.74,0-3.27-0.23-4.59-0.71c-1.7,2.45-3.3,5.02-4.8,7.7c-1.51,2.68-2.83,5.53-3.96,8.55
		c3.86,0.57,7.06,0.8,9.61,0.71c2.54-0.09,4.95-0.28,7.21-0.56c2.26-0.28,4.59-0.57,6.99-0.85c2.4-0.28,5.34-0.38,8.83-0.28
		c2.35-1.13,5.06-1.91,8.12-2.33c3.06-0.42,5.91-1.06,8.55-1.91c0.94,0.28,1.74,0.83,2.4,1.62c0.66,0.8,1.29,1.6,1.91,2.4
		c0.61,0.8,1.25,1.48,1.91,2.05c0.66,0.57,1.51,0.75,2.54,0.57c0.47,0.47,0.78,1.04,0.92,1.7c0.14,0.66,0.28,1.27,0.42,1.84
		c0.14,0.56,0.35,1.01,0.64,1.34c0.28,0.33,0.8,0.45,1.55,0.35c-1.79,3.67-3.79,6.5-6,8.48c-2.21,1.98-4.71,3.51-7.49,4.59
		c-2.78,1.08-5.89,1.89-9.32,2.4c-3.44,0.52-7.28,1.15-11.52,1.91c-1.04,0.19-1.91,0.17-2.61-0.07c-0.71-0.23-1.44-0.35-2.19-0.35
		c-2.64,0.47-5.77,0.94-9.4,1.41c-3.63,0.47-7.28,0.66-10.95,0.56c-3.67-0.09-7.21-0.56-10.6-1.41
		C23.96,119.26,21.13,117.76,18.87,115.59z"/>
	<path class="st1" d="M97.99,106.97l1.84-1.41l0.14-2.97c2.35-5.74,4.78-11.25,7.28-16.53c2.49-5.27,5.11-10.69,7.84-16.25
		c0.85-1.79,1.72-3.58,2.61-5.37c0.89-1.79,1.77-3.62,2.61-5.51c-0.1-0.38-0.14-0.78-0.14-1.2s0.09-0.92,0.28-1.48
		c1.32-1.88,2.38-3.58,3.18-5.09c0.8-1.5,1.58-3.06,2.33-4.66c0.85-1.88,1.77-3.77,2.75-5.65c0.99-1.88,2.24-3.72,3.74-5.51
		l0.99-1.41l1.55,0.14c0.38-0.19,0.78-0.35,1.2-0.49s0.96-0.21,1.62-0.21l2.54,0.42c3.11-1.41,5.86-3.46,8.27-6.15
		s4.83-5.91,7.28-9.68l1.7-2.4l2.26,1.41c0.47,0.28,1.22,0.56,2.26,0.85c1.04,0.28,2.12,0.61,3.25,0.99
		c1.98,0.47,3.91,1.01,5.79,1.62c1.88,0.61,3.34,1.44,4.38,2.47l0.71,1.27c0.19,1.04,0.35,1.98,0.49,2.83
		c0.14,0.85,0.3,1.7,0.49,2.54c0.38,1.98,0.71,3.93,0.99,5.86c0.28,1.93,0.47,4.08,0.56,6.43c0.47,1.88,0.92,3.79,1.34,5.72
		c0.42,1.93,0.82,3.84,1.2,5.72c0.47,2.73,0.99,5.35,1.55,7.84c0.57,2.5,1.32,4.87,2.26,7.13c0.94,0,1.51,0.05,1.7,0.14
		c1.13-0.47,2.45-0.75,3.96-0.85l1.84-0.14l0.56,1.7c0.19,0.28,0.42,0.57,0.71,0.85c0.28,0.28,0.61,0.57,0.99,0.85
		c1.51,0.1,2.61,0.4,3.32,0.92c0.71,0.52,1.29,1.01,1.77,1.48c0.19,0.19,0.42,0.4,0.71,0.64c0.28,0.24,0.52,0.4,0.71,0.49l2.54,0.99
		l-1.41,2.68c-1.04,1.98-2.61,3.91-4.73,5.79c-2.12,1.88-4.5,3.44-7.13,4.66c0.19,0.66,0.3,1.27,0.35,1.84
		c0.05,0.57,0.16,1.22,0.35,1.98c0.38,1.89,0.68,3.84,0.92,5.86c0.23,2.03,0.21,4.12-0.07,6.29c-0.94,2.45-2.05,4.64-3.32,6.57
		c-1.27,1.93-2.78,3.67-4.52,5.23c-1.74,1.55-3.7,2.83-5.86,3.81c-2.17,0.99-4.43,1.53-6.78,1.62c-1.32-0.28-2.28-0.61-2.9-0.99
		c-0.61-0.38-1.15-0.75-1.62-1.13c-0.75-0.57-1.37-0.94-1.84-1.13l-1.84-0.85l0.56-2.12c0.28-0.75,0.26-1.41-0.07-1.98
		c-0.33-0.57-1.01-1.32-2.05-2.26c-0.38-0.28-0.71-0.59-0.99-0.92c-0.28-0.33-0.61-0.68-0.99-1.06l-2.83-3.25l4.66-1.27
		c2.83-0.75,4.71-1.72,5.65-2.9c0.94-1.18,1.32-3.27,1.13-6.29c-2.36-0.47-4.29-0.54-5.79-0.21c-1.51,0.33-3.02,0.68-4.52,1.06
		c-2.17,0.57-4.29,1.06-6.36,1.48c-2.07,0.42-4.33,0.64-6.78,0.64c-1.6,0-3.3-0.14-5.09-0.42l-1.55-0.14l-0.42-1.55
		c0-0.19-0.12-0.4-0.35-0.64c-0.24-0.23-0.45-0.45-0.64-0.64c-0.47-0.57-1.04-1.32-1.7-2.26c-0.66-0.94-0.8-2.12-0.42-3.53
		c-0.66-1.04-1.04-2.12-1.13-3.25c-0.38,0.75-0.68,1.48-0.92,2.19c-0.24,0.71-0.45,1.39-0.64,2.05l-0.57,1.84l-1.84,0.28
		c-0.19,0.19-0.35,0.47-0.49,0.85c-0.14,0.38-0.17,0.66-0.07,0.85l0.57,1.55l-1.41,1.27c-0.19,0.28-0.42,0.52-0.71,0.71
		c-0.28,0.19-0.52,0.38-0.71,0.57c-0.19,1.04-0.45,2.03-0.78,2.97c-0.33,0.94-0.68,1.88-1.06,2.83c-0.47,1.51-0.92,2.97-1.34,4.38
		c-0.42,1.41-0.64,2.83-0.64,4.24l-0.56,1.84c-0.47,0.75-1.06,1.32-1.77,1.7c-0.71,0.38-1.39,0.71-2.05,0.99
		c-0.94,0.38-1.6,0.76-1.98,1.13l-0.42,1.84l-2.12,0.28c-1.23,0.28-2.1,0.47-2.61,0.57c-0.52,0.09-1.11,0.14-1.77,0.14l-1.84-0.14
		c-1.13-1.13-2.05-2-2.75-2.61c-0.71-0.61-1.53-1.15-2.47-1.62l-0.85-1.13c-0.38-0.75-0.61-1.43-0.71-2.05
		c-0.09-0.61-0.23-1.25-0.42-1.91c-0.19-1.22-0.47-2.07-0.85-2.54L97.99,106.97z M143.06,70.24c-1.32,1.88-2.59,3.86-3.81,5.93
		c0.66-0.09,1.29-0.14,1.91-0.14c0.61,0,1.25-0.05,1.91-0.14c3.3-0.19,6.36-0.42,9.18-0.71c2.83-0.28,5.89-0.75,9.18-1.41
		c-0.76-3.48-1.58-7.04-2.47-10.67c-0.9-3.62-1.86-7.28-2.9-10.95l-0.71,1.41c-2.36,2.54-4.62,5.28-6.78,8.19
		c-2.17,2.92-3.96,5.7-5.37,8.34L143.06,70.24z"/>
	<path class="st1" d="M207.2,108.24c-0.47,0.09-0.9-0.26-1.27-1.06c-0.38-0.8-0.8-1.58-1.27-2.33h1.55
		c-0.66-2.07-0.83-3.98-0.49-5.72c0.33-1.74,0.73-3.44,1.2-5.09c0.47-1.65,0.87-3.25,1.2-4.8c0.33-1.55,0.16-3.18-0.49-4.88
		c0.47,0.28,0.82,0.17,1.06-0.35c0.23-0.52,0.42-1.18,0.57-1.98c0.14-0.8,0.19-1.65,0.14-2.54c-0.05-0.89-0.12-1.62-0.21-2.19
		c1.22-2.92,2.19-5.93,2.9-9.04c0.71-3.11,1.34-6.19,1.91-9.25c0.56-3.06,1.2-6.03,1.91-8.9c0.71-2.87,1.62-5.58,2.76-8.12
		c1.32-0.19,2.71-0.02,4.17,0.5c1.46,0.52,2.42,1.15,2.9,1.91c2.92-2.26,5.51-4.99,7.77-8.19c2.26-3.2,4.54-6.33,6.85-9.4
		c2.31-3.06,4.92-5.77,7.84-8.12c2.92-2.35,6.55-3.77,10.88-4.24c2.26,1.6,4.8,3.32,7.63,5.16s5.13,4.12,6.92,6.85
		c0.75,0.47,1.48,0.97,2.19,1.48c0.71,0.52,1.44,1.01,2.19,1.48v2.12c1.32,1.23,2.42,2.66,3.32,4.31c0.89,1.65,1.7,3.39,2.4,5.23
		s1.39,3.7,2.05,5.58c0.66,1.88,1.41,3.63,2.26,5.23c-0.19,0.56-0.26,1.06-0.21,1.48c0.05,0.42,0.14,0.85,0.28,1.27
		c0.14,0.42,0.26,0.9,0.35,1.41c0.09,0.52,0.14,1.15,0.14,1.91c-0.38,4.99-2,9.02-4.87,12.08c-2.87,3.06-6.36,5.56-10.46,7.49
		c-4.1,1.93-8.46,3.58-13.07,4.94c-4.62,1.37-8.81,2.85-12.57,4.45c0,0.38,0.21,0.56,0.64,0.56s0.54,0.28,0.35,0.85
		c2.83,1.7,5.02,3.06,6.57,4.1c1.55,1.04,3.01,1.91,4.38,2.61c1.36,0.71,2.87,1.29,4.52,1.77c1.65,0.47,3.93,1.04,6.85,1.7
		c2.92,0.66,5.2,1.2,6.85,1.62c1.65,0.42,3.13,0.75,4.45,0.99c1.32,0.24,2.73,0.45,4.24,0.64c1.51,0.19,3.53,0.42,6.08,0.71
		c1.04,1.04,1.88,2.26,2.54,3.67c0.66,1.41,1.13,2.83,1.41,4.24c0.28,1.41,0.35,2.75,0.21,4.03c-0.14,1.27-0.54,2.29-1.2,3.04
		c0.09,0.38,0.35,0.54,0.78,0.49c0.42-0.05,0.87-0.02,1.34,0.07c-0.66,0.47-1.23,1.04-1.7,1.7c-0.47,0.66-0.94,1.32-1.41,1.98
		c-0.47,0.66-1.01,1.27-1.62,1.84c-0.61,0.57-1.39,0.89-2.33,0.99c-3.39,1.32-7.72,1.36-13,0.14c-5.28-1.22-12.01-3.39-20.2-6.5
		c-4.05-1.51-7.35-2.87-9.89-4.1c-2.54-1.22-4.76-2.42-6.64-3.6c-1.89-1.18-3.63-2.45-5.23-3.81c-1.6-1.36-3.44-2.99-5.51-4.87
		c-0.28,0.09-0.45,0.28-0.49,0.56c-0.05,0.28-0.21,0.47-0.49,0.57c-0.47,3.77-1.2,6.83-2.19,9.18c-0.99,2.36-2.43,4.76-4.31,7.21
		c-1.51-0.28-2.52-0.14-3.04,0.42c-0.52,0.56-1.15,1.08-1.91,1.55c-0.94,0.19-1.65,0.16-2.12-0.07c-0.47-0.24-0.9-0.5-1.27-0.78
		c-0.38-0.28-0.8-0.57-1.27-0.85c-0.47-0.28-1.23-0.38-2.26-0.28c-0.28-0.85-0.57-1.67-0.85-2.47c-0.28-0.8-1.04-1.15-2.26-1.06
		c0.28-0.85,0.38-1.58,0.28-2.19c-0.1-0.61-0.24-1.18-0.42-1.7c-0.19-0.52-0.35-1.06-0.49-1.62
		C206.85,109.66,206.92,109,207.2,108.24z M254.39,43.67c-1.23,1.79-2.59,3.42-4.1,4.88c-1.51,1.46-2.99,2.97-4.45,4.52
		c-1.46,1.55-2.75,3.25-3.89,5.09s-1.93,4.03-2.4,6.57c3.96-0.47,8.1-1.58,12.43-3.32c4.33-1.74,8.43-3.41,12.29-5.02
		c-0.47-3.48-1.7-6.29-3.67-8.41S256.56,44.43,254.39,43.67z"/>
	<path class="st1" d="M303.14,80.55c0.09-0.38,0.3-0.54,0.64-0.49c0.33,0.05,0.64,0.02,0.92-0.07c-0.75-0.75-1.23-1.77-1.41-3.04
		c-0.19-1.27-0.66-2.33-1.41-3.18c0.19-0.47,0.35-0.94,0.49-1.41c0.14-0.47,0.54-0.66,1.2-0.57c-0.28-2.07-0.24-4,0.14-5.79
		c0.38-1.79,0.96-3.48,1.77-5.09c0.8-1.6,1.74-3.18,2.83-4.73c1.08-1.55,2.14-3.13,3.18-4.73c0.85-0.19,1.36-0.12,1.55,0.21
		c0.19,0.33,0.52,0.26,0.99-0.21c1.51-1.04,2.54-2.19,3.11-3.46s0.85-2.66,0.85-4.17c0.85-2.45,1.81-4.87,2.9-7.28
		c1.08-2.4,2.33-4.64,3.74-6.71c1.41-2.07,2.92-3.88,4.52-5.44c1.6-1.55,3.34-2.75,5.23-3.6c1.32-1.13,2.99-2.17,5.02-3.11
		c2.02-0.94,4.19-1.67,6.5-2.19c2.31-0.52,4.68-0.8,7.14-0.85c2.45-0.05,4.71,0.21,6.78,0.78c0.47,0.19,0.75,0.07,0.85-0.35
		c0.09-0.42,0.33-0.64,0.71-0.64c4.71,0.57,8.92,1.51,12.65,2.83c3.72,1.32,6.9,3.16,9.54,5.51c1.79,2.83,3.48,5.86,5.09,9.11
		c1.6,3.25,2.85,6.64,3.74,10.17c0.89,3.53,1.29,7.18,1.2,10.95c-0.09,3.77-0.9,7.54-2.4,11.3c-3.3,4.15-7.3,7.47-12.01,9.96
		c-4.71,2.5-9.77,4.57-15.19,6.22c-5.42,1.65-11.02,2.99-16.81,4.03c-5.79,1.04-11.42,2.17-16.88,3.39c0.09,2.54,0.09,5.25,0,8.12
		c-0.1,2.88-0.4,5.75-0.92,8.62c-0.52,2.87-1.27,5.67-2.26,8.41c-0.99,2.73-2.33,5.28-4.03,7.63c-1.89-0.09-3.84,0.09-5.86,0.57
		c-2.03,0.47-3.84,0.94-5.44,1.41c-0.75-0.47-1.48-0.92-2.19-1.34c-0.71-0.42-1.58-0.68-2.61-0.78c0.28-1.13,0.02-2.31-0.78-3.53
		c-0.8-1.22-1.6-2.42-2.4-3.6c-0.8-1.18-1.32-2.35-1.55-3.53c-0.24-1.18,0.3-2.24,1.62-3.18c-0.76-0.66-1.13-1.7-1.13-3.11
		c0.38,0.38,0.85,0.57,1.41,0.57c-0.19-1.7,0.02-3.72,0.64-6.08c0.61-2.35,1.13-4.68,1.55-6.99c0.42-2.31,0.49-4.43,0.21-6.36
		C306.25,82.79,305.12,81.4,303.14,80.55z M339.87,47.49c-0.38,1.04-0.68,1.96-0.92,2.75c-0.24,0.8-0.49,1.53-0.78,2.19
		c-0.28,0.66-0.59,1.32-0.92,1.98c-0.33,0.66-0.68,1.41-1.06,2.26c0.19,0.56,0.56,0.99,1.13,1.27c0.57,0.28,0.94,0.71,1.13,1.27
		c1.32-0.66,2.64-1.15,3.96-1.48c1.32-0.33,2.64-0.59,3.96-0.78c1.32-0.19,2.64-0.42,3.96-0.71c1.32-0.28,2.68-0.75,4.1-1.41
		c1.41-0.66,2.9-1.2,4.45-1.62s3.08-0.87,4.59-1.34c1.51-0.47,2.97-1.01,4.38-1.62c1.41-0.61,2.64-1.43,3.67-2.47
		c-1.32-1.22-3.3-2.31-5.93-3.25c-2.64-0.94-5.49-1.53-8.55-1.77c-3.06-0.23-6.12-0.02-9.18,0.64
		C344.79,44.05,342.13,45.42,339.87,47.49z"/>
	<path class="st1" d="M397.38,115.17c-0.38-0.38-0.71-0.82-0.99-1.34c-0.28-0.52-0.52-1.2-0.71-2.05c-1.32-1.6-2.36-3.44-3.11-5.51
		c-0.75-2.07-1.27-4.21-1.55-6.43c-0.28-2.21-0.33-4.45-0.14-6.71c0.19-2.26,0.52-4.38,0.99-6.36c0.28-0.94,0.52-1.93,0.71-2.97
		c0.47-1.79,0.94-3.55,1.41-5.3c0.47-1.74,1.18-3.18,2.12-4.31c-0.38-1.04-0.33-2.17,0.14-3.39c0.47-1.22,0.94-2.35,1.41-3.39
		c0.19-0.28,0.33-0.54,0.42-0.78c0.09-0.23,0.19-0.45,0.28-0.64c1.13-3.3,2.24-6.47,3.32-9.54c1.08-3.06,2.14-6,3.18-8.83
		c1.88-5.18,3.7-10.26,5.44-15.26c1.74-4.99,3.32-10.31,4.73-15.96c0.75-0.57,1.41-0.94,1.98-1.13c0.19-0.09,0.42-0.19,0.71-0.28
		c0.28-0.09,0.61-0.14,0.99-0.14c1.98,1.04,4.31,2,6.99,2.9c2.68,0.9,4.97,1.34,6.85,1.34l2.4,2.12c1.22,1.41,2.28,2.9,3.18,4.45
		c0.89,1.55,1.15,3.56,0.78,6c-0.57,0.85-1.04,1.37-1.41,1.55c-0.56,2.17-1.18,4.08-1.84,5.72c-0.66,1.65-1.32,3.23-1.98,4.73
		c-0.75,1.7-1.46,3.39-2.12,5.09c-0.66,1.7-1.23,3.77-1.7,6.22c-0.57,0.66-0.92,1.22-1.06,1.7c-0.14,0.47-0.31,0.94-0.49,1.41
		c-0.19,0.56-0.42,1.15-0.71,1.77c-0.28,0.61-0.71,1.15-1.27,1.62c-0.38,2.92-0.94,5.3-1.7,7.13s-1.51,3.65-2.26,5.44
		c-1.32,3.3-2.54,6.57-3.67,9.82c-1.13,3.25-1.79,6.95-1.98,11.09c1.13-0.28,2.17-0.42,3.11-0.42c1.22,0,2.4,0.19,3.53,0.57
		c3.39-1.7,7.09-2.73,11.09-3.11c4-0.38,7.98-0.61,11.94-0.71c3.3,0,6.36-0.14,9.18-0.42c0.94,0.66,1.55,1.01,1.84,1.06
		c0.28,0.05,0.75,0.07,1.41,0.07c0.28,0,0.57,0,0.85,0c0.28,0,0.66,0.05,1.13,0.14c1.32,1.32,2.59,2.24,3.81,2.75
		c1.22,0.52,2.54,1.01,3.96,1.48c1.22,0.47,2.42,0.97,3.6,1.48c1.18,0.52,2.33,1.2,3.46,2.05l1.27,7.21
		c0.75,1.04,1.08,1.74,0.99,2.12c0,0.75-0.19,1.41-0.57,1.98l0.28,1.84c-1.79,0.38-2.97,0.78-3.53,1.2
		c-0.57,0.42-1.18,0.97-1.84,1.62c-1.04,0.1-2.03,0.14-2.97,0.14c-1.88,0-3.81,0.28-5.79,0.85c-2.83-1.04-5.93-1.55-9.33-1.55
		c-1.32,0-2.66,0.05-4.03,0.14c-1.37,0.1-2.71,0.24-4.03,0.42c-1.41,0.19-2.83,0.35-4.24,0.5c-1.41,0.14-2.83,0.21-4.24,0.21
		c-1.13,0.19-1.93,0.33-2.4,0.42c-0.47,0.09-0.94,0.24-1.41,0.42c-3.2,1.04-6.66,2.07-10.38,3.11c-3.72,1.04-7.47,1.55-11.23,1.55
		c-5.56,0-10.03-1.41-13.42-4.24c-0.38-0.85-0.66-1.41-0.85-1.7C397.75,115.87,397.56,115.54,397.38,115.17z"/>
	<path class="st1" d="M485.25,50.46c-0.19-1.22-0.42-1.98-0.71-2.26c0.66-1.7,1.15-3.37,1.48-5.02c0.33-1.65,0.59-3.23,0.78-4.73
		c0.19-1.32,0.4-2.54,0.64-3.67c0.23-1.13,0.54-2.21,0.92-3.25c1.6-0.38,2.8-1.06,3.6-2.05c0.8-0.99,1.43-1.86,1.91-2.61
		c1.7-0.09,2.8,0.14,3.32,0.71c0.52,0.57,1.11,1.51,1.77,2.83c0.47,1.04,1.13,2.14,1.98,3.32c0.85,1.18,2.12,2.1,3.81,2.75
		c0.28,1.04,0.61,2.03,0.99,2.97c0.38,0.94,0.8,1.93,1.27,2.97c0.85,1.98,1.65,4.03,2.4,6.15c0.75,2.12,1.18,4.12,1.27,6
		c-1.13,2.17-2,4.66-2.61,7.49c-0.61,2.83-0.99,5.68-1.13,8.55c-0.14,2.88-0.07,5.63,0.21,8.27c0.28,2.64,0.75,4.85,1.41,6.64
		l0.85,2.26l3.11-0.28c3.39-0.85,6.45-1.81,9.18-2.9c2.73-1.08,5.27-2.38,7.63-3.88c2.35-1.51,4.61-3.23,6.78-5.16
		c2.17-1.93,4.43-4.21,6.78-6.85c2.26-2.64,4.28-5.63,6.07-8.97c1.79-3.34,3.27-6.8,4.45-10.38c1.18-3.58,2.09-7.16,2.75-10.74
		c0.66-3.58,1.08-6.92,1.27-10.03c1.79-0.85,2.78-2.21,2.97-4.1L560,22.62c-0.28-0.47-0.4-0.92-0.35-1.34
		c0.05-0.42,0.16-0.82,0.35-1.2c0.75-2.17,2.35-3.77,4.8-4.8c1.7,1.13,3.27,2.36,4.73,3.67c1.46,1.32,2.8,2.64,4.03,3.96
		c0.19,2.54,0.57,4.73,1.13,6.57c0.56,1.84,1.18,3.6,1.84,5.3c0.66,1.6,1.25,3.16,1.77,4.66c0.52,1.51,0.87,3.34,1.06,5.51
		c-0.94,2.83-1.62,5.49-2.05,7.98c-0.42,2.5-0.83,5.11-1.2,7.84l-0.28,1.55c-1.7,2.92-3.37,5.91-5.02,8.97
		c-1.65,3.06-2.99,5.72-4.03,7.98c-0.57,0.57-1.06,1.23-1.48,1.98c-0.42,0.75-0.83,1.51-1.2,2.26c-0.19,0.28-0.45,0.75-0.78,1.41
		c-0.33,0.66-0.64,1.13-0.92,1.41l-3.39-1.27l-0.85,4.38l-2.26,0.56L554.2,92c-2.17,3.77-4.45,6.92-6.85,9.47
		c-2.4,2.54-5.09,4.8-8.05,6.78c-2.97,1.98-6.31,3.84-10.03,5.58c-3.72,1.74-7.98,3.6-12.79,5.58c-1.89-0.28-3.51-0.45-4.87-0.49
		c-1.37-0.05-2.71-0.12-4.03-0.21c-1.32,0-2.59-0.05-3.81-0.14c-1.22-0.09-2.64-0.23-4.24-0.42c-0.38-0.85-0.9-1.46-1.55-1.84
		c-0.66-0.38-1.27-0.56-1.84-0.56c-1.89-0.94-3.3-2.26-4.24-3.96c-0.94-1.7-1.93-3.58-2.97-5.65c-0.47-1.13-0.97-2.26-1.48-3.39
		c-0.52-1.13-1.15-2.21-1.91-3.25l2.83-0.85l-3.67-4.24c-0.28-0.28-0.59-0.56-0.92-0.85c-0.33-0.28-0.64-0.61-0.92-0.99v-2.68
		c-0.38-7.72-0.54-14.86-0.49-21.41c0.05-6.54,0.92-12.31,2.61-17.31L485.25,50.46z"/>
	<path class="st1" d="M575.68,86.91c0-1.04,0.14-1.98,0.42-2.83s0.33-1.93,0.14-3.25c2.92-6.22,6.24-11.98,9.96-17.31
		c3.72-5.32,8.17-10.01,13.35-14.06c0.85-0.66,1.53-1.34,2.05-2.05c0.52-0.71,1.04-1.39,1.55-2.05c0.52-0.66,1.11-1.25,1.77-1.77
		c0.66-0.52,1.51-0.87,2.54-1.06c2.35-2.73,5.18-5.23,8.48-7.49c3.3-2.26,6.73-4.43,10.31-6.5c3.58-2.07,7.18-4.19,10.81-6.36
		c3.62-2.17,6.9-4.52,9.82-7.06c1.04,0.66,1.86,0.87,2.47,0.64c0.61-0.23,1.25-0.26,1.91-0.07c0.85,1.79,1.95,3.04,3.32,3.74
		c1.36,0.71,2.78,1.41,4.24,2.12c1.46,0.71,2.83,1.55,4.1,2.54c1.27,0.99,2.24,2.33,2.9,4.03c-0.66,0-0.97,0.24-0.92,0.71
		c0.05,0.47,0.16,0.99,0.35,1.55c0.19,0.57,0.28,1.08,0.28,1.55c0,0.47-0.42,0.71-1.27,0.71c0,0.66,0.33,0.99,0.99,0.99
		c0.66,0,0.99,0.33,0.99,0.99c0,0.57-0.12,1.01-0.35,1.34c-0.24,0.33-0.26,0.87-0.07,1.62c-2.26,1.51-4.78,2.95-7.56,4.31
		c-2.78,1.37-5.7,2.8-8.76,4.31c-3.06,1.51-6.17,3.13-9.33,4.87c-3.16,1.74-6.29,3.74-9.4,6s-6.24,4.76-9.4,7.49
		c-3.16,2.73-6.19,5.63-9.11,8.69c-2.92,3.06-5.65,6.22-8.2,9.47c-2.54,3.25-4.71,6.43-6.5,9.54c0.19,0.47,0.45,0.9,0.78,1.27
		c0.33,0.38,0.59,0.8,0.78,1.27c3.58,0.19,6.92,0.17,10.03-0.07c3.11-0.23,6.22-0.02,9.33,0.64c0.38-0.28,0.61-0.66,0.71-1.13
		c0.09-0.47,0.38-0.8,0.85-0.99c6.4-0.66,12.38-1.72,17.94-3.18c5.56-1.46,11.21-2.94,16.96-4.45c-1.7-0.66-3.2-1.18-4.52-1.55
		c-0.56-0.57-0.54-1.06,0.07-1.48c0.61-0.42,1.11-0.87,1.48-1.34c-1.51-0.85-2.76-1.98-3.74-3.39c-0.99-1.41-1.58-3.25-1.77-5.51
		c0.66-0.57,0.99-1.22,0.99-1.98c0-0.75-0.33-1.36-0.99-1.84c-0.47-0.19-0.75-0.19-0.85,0c-0.09,0.19-0.17,0.38-0.21,0.56
		c-0.05,0.19-0.14,0.38-0.28,0.57c-0.14,0.19-0.4,0.19-0.78,0c0.09-1.04,0.33-1.88,0.71-2.54c0.38-0.66,0.66-1.46,0.85-2.4
		l11.73-7.77c1.22,0.94,2.73,1.93,4.52,2.97c1.79,1.04,3.67,2.07,5.65,3.11c1.98,1.04,4,2.1,6.07,3.18c2.07,1.08,4,2.14,5.79,3.18
		c1.7,0.75,3.15,1.67,4.38,2.75c1.22,1.08,2.4,2.21,3.53,3.39c1.13,1.18,2.26,2.33,3.39,3.46c1.13,1.13,2.49,2.07,4.1,2.83
		c-0.19,1.51-0.09,2.73,0.28,3.67c0.38,0.94,0.47,2.07,0.28,3.39c-1.79,3.2-3.96,5.91-6.5,8.12c-2.54,2.21-5.39,4.12-8.55,5.72
		c-3.16,1.6-6.52,2.95-10.1,4.03c-3.58,1.08-7.25,2.12-11.02,3.11c-3.77,0.99-7.56,2.03-11.37,3.11c-3.82,1.08-7.56,2.33-11.23,3.74
		c-1.6,0-2.97,0.05-4.1,0.14c-1.13,0.09-2.21,0.24-3.25,0.42c-1.04,0.19-2.07,0.38-3.11,0.57c-1.04,0.19-2.17,0.33-3.39,0.42
		c-0.47-0.09-0.78,0-0.92,0.28c-0.14,0.28-0.35,0.52-0.63,0.71c-1.89,0.28-3.58,0.42-5.09,0.42c-1.51,0-2.78,0-3.82,0
		c-1.32,0-2.68,0.19-4.1,0.56c-1.41,0.38-2.73,0.52-3.96,0.42c-8.48-0.38-15.12-3.39-19.92-9.04c-4.8-5.65-7.44-13.42-7.91-23.31
		c0.09-0.47,0-0.78-0.28-0.92C576.1,87.26,575.87,87.1,575.68,86.91z"/>
	<path class="st1" d="M687.29,56.67c0.28-1.41,0.47-2.57,0.57-3.46c0.09-0.89-0.24-1.86-0.99-2.9c0.38-1.5,0.68-2.68,0.92-3.53
		c0.23-0.85,0.26-2.02,0.07-3.53c0.85-2.45,2.14-4.52,3.88-6.22c1.74-1.7,3.65-3.13,5.72-4.31c2.07-1.18,4.24-2.17,6.5-2.97
		c2.26-0.8,4.38-1.48,6.36-2.05c0-0.38-0.19-0.57-0.57-0.57c-0.38,0-0.47-0.23-0.28-0.71c5.09-0.94,10.19-2.31,15.33-4.1
		c5.13-1.79,10.38-3.39,15.75-4.8c5.37-1.41,10.88-2.28,16.53-2.61c5.65-0.33,11.59,0.4,17.8,2.19c0.38,1.13,0.89,2.21,1.55,3.25
		c0.66,1.04,1.34,2.05,2.05,3.04c0.71,0.99,1.34,1.96,1.91,2.9c0.57,0.94,0.89,1.93,0.99,2.97c1.13,1.04,2.05,2.14,2.75,3.32
		c0.71,1.18,0.82,2.76,0.35,4.73c-1.04,0.75-2.12,1.51-3.25,2.26c-1.13,0.75-2.31,1.46-3.53,2.12c-4.24-1.04-8.48-1.41-12.72-1.13
		c-4.24,0.28-8.05,0.61-11.44,0.99c-1.04-1.13-2.26-1.67-3.67-1.62c-1.41,0.05-2.9,0.28-4.45,0.71c-1.55,0.42-3.09,0.85-4.59,1.27
		c-1.51,0.42-2.92,0.54-4.24,0.35c-1.04,0.94-2.4,1.58-4.1,1.91c-1.7,0.33-3.49,0.59-5.37,0.78c-0.1,0.47,0,0.8,0.28,0.99
		c0.28,0.19,0.33,0.57,0.14,1.13c0.66,0.85,1.55,1.44,2.68,1.77c1.13,0.33,2.28,0.64,3.46,0.92c1.18,0.28,2.24,0.68,3.18,1.2
		c0.94,0.52,1.55,1.34,1.84,2.47c1.7,0.09,3.16,0.54,4.38,1.34c1.22,0.8,2.26,1.77,3.11,2.9c0.85,1.13,1.46,2.33,1.84,3.6
		c0.38,1.27,0.52,2.43,0.42,3.46c0.38,0.94,0.78,1.32,1.2,1.13c0.42-0.19,0.92,0.05,1.48,0.71c0.38,1.41,1.25,2.9,2.61,4.45
		c1.36,1.55,2.42,3.23,3.18,5.02c0.19,2.83,0.35,5.37,0.5,7.63s-0.26,4.47-1.2,6.64c-1.6,4.15-3.91,7.87-6.92,11.16
		c-3.02,3.3-6.43,6.19-10.24,8.69c-3.81,2.5-7.84,4.66-12.08,6.5s-8.43,3.37-12.57,4.59c-0.38-0.09-0.83-0.09-1.34,0
		c-0.52,0.09-0.64-0.19-0.35-0.85c-0.85,0.75-1.82,1.22-2.9,1.41c-1.08,0.19-2.26,0.26-3.53,0.21c-1.27-0.05-2.54-0.12-3.81-0.21
		c-1.27-0.09-2.52-0.05-3.74,0.14c-0.75-0.75-1.44-1.51-2.05-2.26c-0.61-0.75-1.11-1.65-1.48-2.68c-0.47-0.09-0.68-0.4-0.64-0.92
		c0.05-0.52-0.17-0.78-0.64-0.78c0-0.38,0.05-0.66,0.14-0.85c0.09-0.19,0.19-0.38,0.28-0.57c0.38-0.28,0.54-0.5,0.49-0.64
		c-0.05-0.14-0.19-0.28-0.42-0.42c-0.24-0.14-0.47-0.3-0.71-0.5c-0.24-0.19-0.31-0.42-0.21-0.71c0.47-0.85,0.64-1.86,0.5-3.04
		c-0.14-1.18-0.26-2.38-0.35-3.6c-0.1-1.22,0-2.38,0.28-3.46c0.28-1.08,1.08-2,2.4-2.76c3.86,0.38,7.51,0.19,10.95-0.56
		c3.44-0.75,6.69-1.79,9.75-3.11c3.06-1.32,5.98-2.75,8.76-4.31c2.78-1.55,5.49-2.99,8.12-4.31c0.28-0.94,0.73-1.74,1.34-2.4
		c0.61-0.66,1.25-1.29,1.91-1.91c0.66-0.61,1.27-1.27,1.84-1.98c0.56-0.71,0.99-1.58,1.27-2.61c0.09-0.38,0.09-0.66,0-0.85
		c-0.1-0.19-0.24-0.35-0.42-0.5c-0.19-0.14-0.38-0.3-0.57-0.49c-0.19-0.19-0.28-0.47-0.28-0.85c-0.28-0.09-0.54-0.19-0.78-0.28
		c-0.24-0.09-0.45-0.14-0.64-0.14c-2.45-1.22-5.04-2.26-7.77-3.11c-2.73-0.85-5.04-1.79-6.92-2.83c-1.13,0.75-2.26,0.94-3.39,0.56
		c-1.13-0.38-2.5-0.75-4.1-1.13c-3.96-0.19-7.7-0.57-11.23-1.13c-3.53-0.56-6.95-1.55-10.24-2.97c-0.19-0.56-0.42-1.06-0.71-1.48
		s-0.94-0.54-1.98-0.35c-0.66-0.94-1.34-1.81-2.05-2.61C688.49,58.63,687.86,57.71,687.29,56.67z"/>
</g>
</svg>
