<?xml version="1.0" encoding="utf-8"?>
<!-- Generator: Adobe Illustrator 24.1.2, SVG Export Plug-In . SVG Version: 6.00 Build 0)  -->
<svg version="1.1" id="Layer_1" xmlns="http://www.w3.org/2000/svg" xmlns:xlink="http://www.w3.org/1999/xlink" x="0px" y="0px"
	 viewBox="0 0 958 132" style="enable-background:new 0 0 958 132;" xml:space="preserve">
<style type="text/css">
	.st0{enable-background:new    ;}
</style>
<g class="st0">
	<path d="M22.12,67.27c-0.47-2.64-0.61-5.37-0.42-8.2c0.19-2.83,0.28-5.56,0.28-8.19c0-2.54-0.17-5.25-0.49-8.12
		c-0.33-2.87-0.61-5.63-0.85-8.27c-0.24-2.64-0.33-5.06-0.28-7.28c0.05-2.21,0.35-3.93,0.92-5.16c0.75-1.41,1.7-2.52,2.83-3.32
		c1.13-0.8,2.21-1.72,3.25-2.75c1.22,0.19,2.33,0.54,3.32,1.06c0.99,0.52,1.84,1.18,2.54,1.98c0.71,0.8,1.22,1.62,1.55,2.47
		c0.33,0.85,0.4,1.7,0.21,2.54c2.35,1.41,4.26,3.32,5.72,5.72c1.46,2.4,2.59,5.04,3.39,7.91c0.8,2.87,1.36,5.91,1.7,9.11
		c0.33,3.2,0.61,6.36,0.85,9.47c0.23,3.11,0.47,6.05,0.71,8.83c0.23,2.78,0.68,5.21,1.34,7.28c4.14-6.03,7.65-11.37,10.53-16.04
		c2.87-4.66,5.77-9.13,8.69-13.42c2.92-4.29,6.19-8.64,9.82-13.07c3.62-4.43,8.27-9.42,13.92-14.98c1.22,0.19,2.17,0.42,2.83,0.71
		c0.66,0.28,1.32,0.57,1.98,0.85c0.66,0.28,1.36,0.49,2.12,0.64c0.75,0.14,1.79,0.12,3.11-0.07c0.47,1.13,0.82,1.96,1.06,2.47
		c0.23,0.52,0.45,1.01,0.64,1.48c0.19,0.47,0.42,1.08,0.71,1.84c0.28,0.75,0.71,1.89,1.27,3.39c0.28,0.38,0.4,0.87,0.35,1.48
		c-0.05,0.61-0.12,1.15-0.21,1.62c-0.1,0.47-0.12,0.85-0.07,1.13c0.05,0.28,0.35,0.28,0.92,0c-0.38,1.6-0.99,3.04-1.84,4.31
		c-0.85,1.27-1.23,2.8-1.13,4.59c-2.54,3.39-5.37,6.88-8.48,10.46c-3.11,3.58-6.22,7.32-9.32,11.23c-3.11,3.91-6.1,7.96-8.97,12.15
		c-2.87,4.19-5.3,8.64-7.28,13.35c-0.56,0-0.99,0.14-1.27,0.42c-0.28,0.28-0.54,0.61-0.78,0.99c-0.24,0.38-0.47,0.75-0.71,1.13
		c-0.24,0.38-0.64,0.56-1.2,0.56c-0.19,3.02-1.3,5.86-3.32,8.55c-2.03,2.68-4.08,4.97-6.15,6.85c0.19,0.75,0.28,1.37,0.28,1.84
		c0,0.47-0.05,0.94-0.14,1.41c-0.1,0.47-0.17,0.97-0.21,1.48c-0.05,0.52-0.02,1.15,0.07,1.91c-0.85,2.26-1.96,4.15-3.32,5.65
		c-1.37,1.51-2.85,2.64-4.45,3.39c-1.6,0.75-3.25,1.06-4.94,0.92c-1.7-0.14-3.3-0.73-4.8-1.77c-0.66-0.38-1.23-0.89-1.7-1.55
		c-0.47-0.66-0.97-1.29-1.48-1.91c-0.52-0.61-1.04-1.18-1.55-1.7c-0.52-0.52-1.15-0.87-1.91-1.06c0.19-0.94,0.21-1.93,0.07-2.97
		c-0.14-1.04-0.35-1.98-0.64-2.83c-0.28-0.85-0.61-1.55-0.99-2.12c-0.38-0.57-0.75-0.85-1.13-0.85c-0.38-2.35-0.87-4.92-1.48-7.7
		c-0.61-2.78-1.23-5.53-1.84-8.27c-0.61-2.73-1.11-5.42-1.48-8.05c-0.38-2.64-0.52-5.09-0.42-7.35c0.09-1.13-0.12-2.14-0.64-3.04
		C22.66,69.55,22.31,68.5,22.12,67.27z"/>
	<path d="M125.12,120.96c-4.15,0.56-7.91,0.38-11.3-0.57c-3.39-0.94-6.43-2.4-9.11-4.38c-2.68-1.98-4.99-4.33-6.92-7.06
		c-1.93-2.73-3.51-5.65-4.73-8.76c-0.85-6.4-0.61-12.22,0.71-17.45c1.32-5.23,3.25-10.05,5.79-14.48c2.54-4.43,5.44-8.57,8.69-12.43
		c3.25-3.86,6.38-7.58,9.4-11.16c0.66,0.28,1.2,0.28,1.62,0c0.42-0.28,0.8-0.66,1.13-1.13c0.33-0.47,0.71-0.94,1.13-1.41
		c0.42-0.47,0.92-0.8,1.48-0.99c0.38-0.85,0.87-1.55,1.48-2.12c0.61-0.57,1.27-1.11,1.98-1.62c0.71-0.52,1.36-1.06,1.98-1.62
		c0.61-0.57,1.15-1.27,1.62-2.12c0.94-0.19,1.77-0.52,2.47-0.99c0.71-0.47,1.36-0.99,1.98-1.55c0.61-0.56,1.25-1.08,1.91-1.55
		c0.66-0.47,1.46-0.85,2.4-1.13v-1.84c2.07-0.94,3.58-1.98,4.52-3.11c0.94-1.13,2.07-2.59,3.39-4.38c1.04-0.09,1.86-0.14,2.47-0.14
		c0.61,0,1.58-0.09,2.9-0.28c0.85-1.6,1.65-2.78,2.4-3.53c0.75-0.75,1.84-1.6,3.25-2.54c1.41,0.75,2.92,1.2,4.52,1.34
		c1.6,0.14,3.06,0.87,4.38,2.19c0.09,1.13,0.42,2,0.99,2.61c0.56,0.61,1.18,1.18,1.84,1.7c0.66,0.52,1.32,1.06,1.98,1.62
		c0.66,0.57,1.08,1.37,1.27,2.4c0.47,0,0.78-0.09,0.92-0.28c0.14-0.19,0.45-0.23,0.92-0.14c0.19,0.76,0.38,1.37,0.56,1.84
		c0.19,0.47,0.4,0.9,0.64,1.27c0.23,0.38,0.47,0.8,0.71,1.27c0.23,0.47,0.45,1.04,0.64,1.7c-0.47,1.13-0.9,2.33-1.27,3.6
		c-0.38,1.27-1.13,2.14-2.26,2.61c0,0.75,0.28,1.16,0.85,1.2c0.56,0.05,0.89,0.4,0.99,1.06c0.09,0.85-0.05,1.55-0.42,2.12
		c2.64,4.43,5.04,9.07,7.21,13.92c2.17,4.85,4.61,9.49,7.35,13.92c-0.19,1.32-0.12,2.61,0.21,3.88c0.33,1.27,0.75,2.52,1.27,3.74
		c0.52,1.23,1.01,2.45,1.48,3.67c0.47,1.22,0.8,2.45,0.99,3.67c0.19,1.6,0.19,3.32,0,5.16c-0.19,1.84-0.56,3.6-1.13,5.3
		c-0.57,1.7-1.32,3.27-2.26,4.73c-0.94,1.46-2.03,2.57-3.25,3.32c-1.51,1.89-3.39,3.42-5.65,4.59c-2.26,1.18-4.33,2.57-6.22,4.17
		c-1.32,0.75-2.73,1.3-4.24,1.62c-1.51,0.33-3.06,0.68-4.66,1.06c-1.23,0.75-2.68,1.48-4.38,2.19c-1.7,0.71-3.44,1.34-5.23,1.91
		c-1.79,0.57-3.58,1.01-5.37,1.34c-1.79,0.33-3.39,0.4-4.8,0.21c-3.39,1.23-6.69,2.07-9.89,2.54
		C133.22,122.14,129.45,121.9,125.12,120.96z M126.95,69.53c-0.94,2.17-2.05,4.12-3.32,5.86c-1.27,1.74-2.52,3.51-3.74,5.3
		c-1.23,1.79-2.28,3.7-3.18,5.72c-0.9,2.03-1.39,4.4-1.48,7.13c1.88,1.6,4.12,2.57,6.71,2.9c2.59,0.33,5.25,0.38,7.98,0.14
		c2.73-0.23,5.46-0.59,8.19-1.06c2.73-0.47,5.18-0.71,7.35-0.71c0-0.85,0.38-1.27,1.13-1.27c3.96-0.38,7.63-1.48,11.02-3.32
		c3.39-1.84,6.92-3.7,10.6-5.58c0.47-1.13,1.08-2.12,1.84-2.97c0.75-0.85,1.18-2.07,1.27-3.67c-0.47-0.85-0.78-1.55-0.92-2.12
		s-0.21-1.41-0.21-2.54c-2.45-3.39-4.57-7.09-6.36-11.09c-1.79-4-3.86-7.79-6.22-11.37c-0.19,0.47-0.57,0.94-1.13,1.41
		c-0.57,0.47-1.18,0.38-1.84-0.28c-0.28,0.94-0.71,1.58-1.27,1.91c-0.56,0.33-1.2,0.49-1.91,0.49c-0.71,0-1.41-0.14-2.12-0.42
		c-0.71-0.28-1.34-0.66-1.91-1.13c-3.3,2.64-6.57,5.18-9.82,7.63c-3.25,2.45-6.19,5.32-8.83,8.62c-0.47,0.28-0.75,0.38-0.85,0.28
		C127.85,69.3,127.52,69.34,126.95,69.53z"/>
	<path d="M195.34,122.09c-1.32-0.85-2.38-1.93-3.18-3.25c-0.8-1.32-1.46-2.73-1.98-4.24c-0.52-1.5-0.94-3.08-1.27-4.73
		c-0.33-1.65-0.68-3.23-1.06-4.73c0-1.32,0.28-2.28,0.85-2.9c0.57-0.61,1.18-1.2,1.84-1.77c2.26-0.09,4.29-0.28,6.08-0.57
		c1.79-0.28,3.53-0.57,5.23-0.85c1.7-0.28,3.39-0.54,5.09-0.78c1.7-0.23,3.53-0.35,5.51-0.35c1.41-2.92,2.73-5.72,3.96-8.41
		c1.22-2.68,2.4-5.25,3.53-7.7c0.56-2.35,1.29-4.54,2.19-6.57c0.89-2.02,1.77-3.96,2.61-5.79c0.85-1.84,1.6-3.67,2.26-5.51
		c0.66-1.84,1.08-3.79,1.27-5.86c1.13-3.3,2.14-6.33,3.04-9.11c0.89-2.78,1.58-6.1,2.05-9.96c-3.58,0.57-6.45,1.11-8.62,1.62
		c-2.17,0.52-3.72,1.01-4.66,1.48c-1.89-0.09-3.37-0.47-4.45-1.13c-1.08-0.66-1.96-1.46-2.61-2.4c-0.66-0.94-1.23-2.02-1.7-3.25
		c-0.47-1.22-1.04-2.5-1.7-3.82c0.38-0.85,0.47-2.09,0.28-3.74c-0.19-1.65-0.75-2.85-1.7-3.6c0.75-0.19,1.32-0.82,1.7-1.91
		c0.38-1.08,0.42-1.91,0.14-2.47c1.6-0.47,3.3-0.78,5.09-0.92c1.79-0.14,3.55-0.28,5.3-0.42c1.74-0.14,3.41-0.33,5.02-0.57
		c1.6-0.23,2.97-0.73,4.1-1.48c4.9-0.19,10.01-0.38,15.33-0.57c5.32-0.19,10.24-0.42,14.76-0.71c1.7,0.56,3.65,0.85,5.86,0.85
		c2.21,0,4.43,0.14,6.64,0.42c2.21,0.28,4.19,0.9,5.93,1.84c1.74,0.94,2.94,2.59,3.6,4.94c1.41,0.19,2.47,0.57,3.18,1.13
		c0.71,0.56,1.15,1.25,1.34,2.05c0.19,0.8,0.26,1.7,0.21,2.68c-0.05,0.99-0.07,1.96-0.07,2.9c-1.51,1.13-3.42,2.05-5.72,2.76
		c-2.31,0.71-4.83,1.27-7.56,1.7c-2.73,0.42-5.58,0.71-8.55,0.85c-2.97,0.14-5.86,0.26-8.69,0.35c-0.47,3.11-1.3,6.76-2.47,10.95
		c-1.18,4.19-2.38,8.29-3.6,12.29c-1.23,4-2.28,7.58-3.18,10.74c-0.9,3.16-1.3,5.21-1.2,6.15c-0.94,2.17-1.72,4-2.33,5.51
		c-0.61,1.51-1.18,2.92-1.7,4.24c-0.52,1.32-1.04,2.61-1.55,3.89c-0.52,1.27-1.15,2.71-1.91,4.31h9.61
		c0.19,1.04,0.61,1.74,1.27,2.12c0.66,0.38,1.36,0.71,2.12,0.99c0.75,0.28,1.44,0.64,2.05,1.06c0.61,0.42,0.92,1.11,0.92,2.05
		c1.79,0.47,2.92,1.18,3.39,2.12c0.47,0.94,0.59,1.96,0.35,3.04c-0.24,1.08-0.71,2.19-1.41,3.32s-1.39,2.12-2.05,2.97
		c-0.85-0.19-1.65,0.02-2.4,0.64c-0.75,0.61-1.46,1.3-2.12,2.05c-2.73-0.38-5.42-0.42-8.05-0.14c-2.64,0.28-5.09,0.52-7.35,0.71
		c-0.47,0.09-0.66,0.35-0.56,0.78c0.09,0.42,0,0.73-0.28,0.92c-2.92-0.94-5.91-1.32-8.97-1.13c-3.06,0.19-6.17,0.64-9.32,1.34
		c-3.16,0.71-6.38,1.46-9.68,2.26C202.07,121.55,198.73,121.99,195.34,122.09z"/>
	<path d="M280.67,108.1c-2.73-2.07-4.97-4.66-6.71-7.77c-1.74-3.11-3.11-6.4-4.1-9.89c-0.99-3.48-1.65-7.09-1.98-10.81
		c-0.33-3.72-0.45-7.28-0.35-10.67c0.85-2.54,1.88-4.88,3.11-6.99c1.22-2.12,2.59-4.14,4.1-6.08c1.51-1.93,3.08-3.77,4.73-5.51
		c1.65-1.74,3.27-3.51,4.87-5.3c0.56,0,1.08,0.14,1.55,0.42c0.38-1.04,0.94-1.93,1.7-2.68c0.75-0.75,1.55-1.43,2.4-2.05
		c0.85-0.61,1.7-1.22,2.54-1.84c0.85-0.61,1.55-1.34,2.12-2.19c2.35-0.56,4.45-1.36,6.29-2.4c1.84-1.04,3.6-2.17,5.3-3.39
		c1.7-1.22,3.44-2.35,5.23-3.39c1.79-1.04,3.86-1.84,6.22-2.4c0.85-0.94,1.91-1.74,3.18-2.4c1.27-0.66,2.54-1.27,3.81-1.84
		c1.27-0.57,2.49-1.18,3.67-1.84c1.18-0.66,2.14-1.55,2.9-2.68c0.57,0.75,1.36,1.01,2.4,0.78c1.04-0.23,1.98-0.5,2.83-0.78
		c0.56-0.09,1.04,0,1.41,0.28c0.38,0.28,0.73,0.59,1.06,0.92c0.33,0.33,0.61,0.54,0.85,0.64c0.23,0.09,0.49-0.19,0.78-0.85
		c0.75,0.09,0.96,0.42,0.64,0.99c-0.33,0.57-0.54,0.94-0.64,1.13c0.94-0.19,1.72-0.02,2.33,0.49c0.61,0.52,1.58,0.87,2.9,1.06
		c0.47,0.47,0.61,0.85,0.42,1.13c-0.19,0.28-0.33,0.75-0.42,1.41c3.39,1.04,5.56,2.66,6.5,4.88c0.94,2.21,1.04,4.52,0.28,6.92
		c-0.75,2.4-2.14,4.62-4.17,6.64c-2.03,2.03-4.26,3.37-6.71,4.03c-2.92,0.75-5.63,1.51-8.12,2.26c-2.5,0.75-4.9,1.6-7.21,2.54
		c-2.31,0.94-4.48,2.05-6.5,3.32c-2.03,1.27-3.79,2.75-5.3,4.45c-2.64,0.75-5.02,1.79-7.14,3.11c-2.12,1.32-4.1,2.78-5.93,4.38
		c-1.84,1.6-3.6,3.27-5.3,5.02c-1.7,1.74-3.39,3.46-5.09,5.16c0,1.6-0.28,2.83-0.85,3.67s-1.18,1.7-1.84,2.54
		c0.19,1.79,0.59,3.32,1.2,4.59c0.61,1.27,1.25,2.57,1.91,3.88c7.53,2.26,15.52,3.65,23.95,4.17c8.43,0.52,16.79,0.83,25.08,0.92
		c0.85,1.13,1.81,2.19,2.9,3.18c1.08,0.99,2.07,2,2.97,3.04c0.89,1.04,1.6,2.24,2.12,3.6c0.52,1.37,0.64,2.99,0.35,4.87
		c-1.6,1.6-3.34,3.13-5.23,4.59c-1.89,1.46-3.77,2.9-5.65,4.31c-0.85,0.09-1.86,0.09-3.04,0c-1.18-0.09-2.4-0.14-3.67-0.14
		s-2.54,0.07-3.81,0.21c-1.27,0.14-2.47,0.45-3.6,0.92c-5.93-0.19-12.01-0.92-18.23-2.19c-6.22-1.27-11.96-2.8-17.24-4.59
		c-1.04-1.22-2.12-2.38-3.25-3.46C284.06,109.35,282.56,108.57,280.67,108.1z"/>
	<path d="M362.48,115.59c-0.75-0.75-1.3-1.65-1.62-2.68c-0.33-1.04-1.11-1.88-2.33-2.54c-0.19-1.41-0.45-3.04-0.78-4.87
		c-0.33-1.84-0.66-3.72-0.99-5.65c-0.33-1.93-0.56-3.86-0.71-5.79c-0.14-1.93-0.07-3.7,0.21-5.3c0.19-0.85,0.49-1.65,0.92-2.4
		c0.42-0.75,0.85-1.48,1.27-2.19c0.42-0.71,0.75-1.43,0.99-2.19c0.23-0.75,0.26-1.51,0.07-2.26c0.57-0.09,0.92-0.4,1.06-0.92
		c0.14-0.52,0.59-0.68,1.34-0.5c0.66-2.07,1.36-4,2.12-5.79c0.75-1.79,1.55-3.53,2.4-5.23c0.85-1.7,1.72-3.41,2.61-5.16
		c0.89-1.74,1.72-3.7,2.47-5.86c-1.6-1.51-2.75-3.13-3.46-4.88c-0.71-1.74-1.25-3.51-1.62-5.3c-0.38-1.79-0.66-3.6-0.85-5.44
		c-0.19-1.84-0.57-3.7-1.13-5.58c1.13-1.7,2.49-3.08,4.1-4.17c1.6-1.08,3.37-1.98,5.3-2.68c1.93-0.71,4.03-1.27,6.29-1.7
		s4.66-0.92,7.21-1.48c4.52-1.41,8.57-2.52,12.15-3.32c3.58-0.8,7.06-1.46,10.46-1.98c3.39-0.52,6.92-0.99,10.6-1.41
		s7.91-1.06,12.72-1.91c0.09,0.28,0.26,0.42,0.49,0.42c0.23,0,0.54,0,0.92,0c0.28,0.66,0.8,0.99,1.55,0.99
		c0-0.28-0.02-0.54-0.07-0.78c-0.05-0.23-0.07-0.45-0.07-0.64c0.19,0,0.45,0.05,0.78,0.14c0.33,0.09,0.61,0.19,0.85,0.28
		c0.23,0.09,0.45,0.07,0.64-0.07c0.19-0.14,0.23-0.45,0.14-0.92c1.13,1.98,2.59,3.6,4.38,4.88c1.79,1.27,3.77,2.38,5.93,3.32
		c0.09,0.85,0.12,1.46,0.07,1.84c-0.05,0.38-0.12,0.73-0.21,1.06c-0.1,0.33-0.14,0.71-0.14,1.13s0.09,1.01,0.28,1.77
		c-1.51,2.54-3.23,4.52-5.16,5.93c-1.93,1.41-3.98,2.5-6.15,3.25c-2.17,0.75-4.45,1.32-6.85,1.7c-2.4,0.38-4.85,0.78-7.35,1.2
		c-2.5,0.42-5.02,1.01-7.56,1.77c-2.54,0.76-5.04,1.89-7.49,3.39c-0.75-0.28-1.44-0.4-2.05-0.35c-0.61,0.05-1.25,0.17-1.91,0.35
		c-0.66,0.19-1.39,0.38-2.19,0.56c-0.8,0.19-1.77,0.19-2.9,0c-0.75,0.66-1.62,1.13-2.61,1.41c-0.99,0.28-2,0.57-3.04,0.85
		c0.47,1.04,0.68,2.07,0.64,3.11c-0.05,1.04,0.07,1.93,0.35,2.68c3.96,0.38,8.34,0.35,13.14-0.07s9.51-0.73,14.13-0.92
		c0.09,0.47,0.05,0.8-0.14,0.99c-0.19,0.19-0.28,0.52-0.28,0.99c0.85,0.56,1.65,1.27,2.4,2.12c0.75,0.85,1.53,1.67,2.33,2.47
		c0.8,0.8,1.62,1.46,2.47,1.98c0.85,0.52,1.84,0.73,2.97,0.64c0.47,0.94,0.8,1.93,0.99,2.97c0.19,1.04,0.05,2.12-0.42,3.25
		c-1.89,1.23-3.72,2.47-5.51,3.74c-1.79,1.27-3.65,2.43-5.58,3.46c-1.93,1.04-4.03,1.88-6.29,2.54c-2.26,0.66-4.71,0.94-7.35,0.85
		c-0.47,0-0.87,0-1.2,0c-0.33,0-0.73-0.19-1.2-0.57c-0.94,0.47-2.19,0.64-3.74,0.49c-1.55-0.14-2.85,0.02-3.89,0.5
		c-1.32-0.47-2.85-0.71-4.59-0.71c-1.74,0-3.27-0.23-4.59-0.71c-1.7,2.45-3.3,5.02-4.8,7.7c-1.51,2.68-2.83,5.53-3.96,8.55
		c3.86,0.57,7.06,0.8,9.61,0.71c2.54-0.09,4.95-0.28,7.21-0.56c2.26-0.28,4.59-0.57,6.99-0.85c2.4-0.28,5.34-0.38,8.83-0.28
		c2.35-1.13,5.06-1.91,8.12-2.33c3.06-0.42,5.91-1.06,8.55-1.91c0.94,0.28,1.74,0.83,2.4,1.62c0.66,0.8,1.29,1.6,1.91,2.4
		c0.61,0.8,1.25,1.48,1.91,2.05c0.66,0.57,1.51,0.75,2.54,0.57c0.47,0.47,0.78,1.04,0.92,1.7c0.14,0.66,0.28,1.27,0.42,1.84
		c0.14,0.56,0.35,1.01,0.64,1.34c0.28,0.33,0.8,0.45,1.55,0.35c-1.79,3.67-3.79,6.5-6,8.48c-2.21,1.98-4.71,3.51-7.49,4.59
		c-2.78,1.08-5.89,1.89-9.32,2.4c-3.44,0.52-7.28,1.15-11.52,1.91c-1.04,0.19-1.91,0.17-2.61-0.07c-0.71-0.23-1.44-0.35-2.19-0.35
		c-2.64,0.47-5.77,0.94-9.4,1.41c-3.63,0.47-7.28,0.66-10.95,0.56c-3.67-0.09-7.21-0.56-10.6-1.41
		C367.56,119.26,364.74,117.76,362.48,115.59z"/>
	<path d="M524.39,107.11c-0.94,0.75-1.51,1.72-1.7,2.9c-0.19,1.18-0.42,2.33-0.71,3.46c-0.28,1.13-0.78,2.1-1.48,2.9
		c-0.71,0.8-1.96,1.15-3.74,1.06c-0.38,0.47-0.45,0.75-0.21,0.85c0.23,0.09,0.45,0.52,0.64,1.27c-1.32-0.19-2.26-0.09-2.83,0.28
		c-0.56,0.38-1.27,0.66-2.12,0.85c-2.17-0.66-3.98-1.86-5.44-3.6c-1.46-1.74-2.73-3.65-3.81-5.72c-1.08-2.07-2.03-4.19-2.83-6.36
		c-0.8-2.17-1.62-4.05-2.47-5.65c0-0.38,0.17-0.54,0.5-0.49c0.33,0.05,0.64,0.07,0.92,0.07c-0.47-0.94-0.82-2-1.06-3.18
		c-0.23-1.18-0.68-2.14-1.34-2.9c2.73-5.84,5.65-11.94,8.76-18.3c3.11-6.36,6.24-12.81,9.4-19.36c3.15-6.55,6.31-13.14,9.47-19.78
		c3.15-6.64,6.19-13.16,9.11-19.57c2.64,0.94,5.2,2.05,7.7,3.32c2.5,1.27,4.78,2.75,6.85,4.45c2.07,1.7,3.84,3.65,5.3,5.86
		c1.46,2.21,2.42,4.73,2.9,7.56c-0.19,0.56-0.42,0.75-0.71,0.56c-0.28-0.19-0.52-0.09-0.71,0.28c0.47,0.56,0.73,0.97,0.78,1.2
		c0.05,0.24,0.02,0.47-0.07,0.71c-0.1,0.24-0.14,0.54-0.14,0.92c0,0.38,0.23,0.9,0.71,1.55c-0.47-0.09-0.8-0.02-0.99,0.21
		c-0.19,0.24-0.52,0.26-0.99,0.07c0.47,1.32,0.61,2.36,0.42,3.11c-0.19,0.75-0.47,1.44-0.85,2.05c-0.38,0.61-0.68,1.27-0.92,1.98
		c-0.24,0.71-0.17,1.67,0.21,2.9c-0.38,0-0.64,0.07-0.78,0.21c-0.14,0.14-0.26,0.31-0.35,0.5c-0.1,0.19-0.21,0.35-0.35,0.49
		c-0.14,0.14-0.4,0.17-0.78,0.07c0.28,2.45,0.38,4.92,0.28,7.42c-0.1,2.5-0.19,5.04-0.28,7.63c-0.09,2.59-0.09,5.25,0,7.98
		c0.09,2.73,0.47,5.56,1.13,8.48c4.05-2.35,7.32-5.42,9.82-9.18c2.5-3.77,4.47-7.96,5.93-12.57c1.46-4.61,2.59-9.56,3.39-14.83
		c0.8-5.27,1.62-10.64,2.47-16.11c1.04-1.04,1.86-2.31,2.47-3.82c0.61-1.5,1.13-3.06,1.55-4.66c0.42-1.6,0.85-3.23,1.27-4.87
		c0.42-1.65,1.01-3.13,1.77-4.45c1.7,0.19,3.13,0.68,4.31,1.48c1.18,0.8,2.28,1.7,3.32,2.68c1.04,0.99,2.12,1.91,3.25,2.76
		c1.13,0.85,2.54,1.41,4.24,1.7c1.32,1.88,2.54,3.7,3.67,5.44c1.13,1.74,1.88,3.7,2.26,5.86c-0.56,0.94-0.99,1.98-1.27,3.11
		c-0.28,1.13-0.59,2.26-0.92,3.39c-0.33,1.13-0.78,2.17-1.34,3.11c-0.57,0.94-1.37,1.74-2.4,2.4c-0.28,2.83-0.71,5.46-1.27,7.91
		c-0.57,2.45-1.08,4.85-1.55,7.21c-0.47,2.36-0.9,4.8-1.27,7.35c-0.38,2.54-0.52,5.32-0.42,8.34c-0.85,2.73-1.79,5.53-2.83,8.41
		c-1.04,2.87-1.79,5.53-2.26,7.98c-1.79,1.41-3.2,3.16-4.24,5.23c-1.04,2.07-2.12,4.15-3.25,6.22c-0.47,0.38-0.76,0.45-0.85,0.21
		c-0.1-0.23-0.52-0.4-1.27-0.49c0.09,0.85-0.07,1.39-0.5,1.62c-0.42,0.24-0.4,0.92,0.07,2.05c-1.6,0.75-3.02,1.74-4.24,2.97
		c-1.23,1.22-2.57,2.36-4.03,3.39c-1.46,1.04-3.16,1.72-5.09,2.05c-1.93,0.33-4.45-0.07-7.56-1.2c-4.62-3.39-8.76-7.3-12.43-11.73
		c-3.67-4.43-6.59-9.65-8.76-15.68c-0.94,0.28-1.65,0.9-2.12,1.84c-0.47,0.94-0.9,1.93-1.27,2.97c-0.38,1.04-0.76,1.98-1.13,2.83
		c-0.38,0.85-0.94,1.27-1.7,1.27c-0.19,0.85-0.54,1.62-1.06,2.33c-0.52,0.71-1.01,1.41-1.48,2.12c-0.47,0.71-0.83,1.48-1.06,2.33
		C523.8,105.13,523.92,106.08,524.39,107.11z"/>
	<path d="M631.91,120.96c-4.15,0.56-7.91,0.38-11.3-0.57c-3.39-0.94-6.43-2.4-9.11-4.38c-2.68-1.98-4.99-4.33-6.92-7.06
		c-1.93-2.73-3.51-5.65-4.73-8.76c-0.85-6.4-0.61-12.22,0.71-17.45c1.32-5.23,3.25-10.05,5.79-14.48c2.54-4.43,5.44-8.57,8.69-12.43
		c3.25-3.86,6.38-7.58,9.4-11.16c0.66,0.28,1.2,0.28,1.62,0c0.42-0.28,0.8-0.66,1.13-1.13c0.33-0.47,0.71-0.94,1.13-1.41
		c0.42-0.47,0.92-0.8,1.48-0.99c0.38-0.85,0.87-1.55,1.48-2.12c0.61-0.57,1.27-1.11,1.98-1.62c0.71-0.52,1.36-1.06,1.98-1.62
		c0.61-0.57,1.15-1.27,1.62-2.12c0.94-0.19,1.77-0.52,2.47-0.99c0.71-0.47,1.36-0.99,1.98-1.55c0.61-0.56,1.25-1.08,1.91-1.55
		c0.66-0.47,1.46-0.85,2.4-1.13v-1.84c2.07-0.94,3.58-1.98,4.52-3.11c0.94-1.13,2.07-2.59,3.39-4.38c1.04-0.09,1.86-0.14,2.47-0.14
		c0.61,0,1.58-0.09,2.9-0.28c0.85-1.6,1.65-2.78,2.4-3.53c0.75-0.75,1.84-1.6,3.25-2.54c1.41,0.75,2.92,1.2,4.52,1.34
		c1.6,0.14,3.06,0.87,4.38,2.19c0.09,1.13,0.42,2,0.99,2.61c0.56,0.61,1.18,1.18,1.84,1.7c0.66,0.52,1.32,1.06,1.98,1.62
		c0.66,0.57,1.08,1.37,1.27,2.4c0.47,0,0.78-0.09,0.92-0.28c0.14-0.19,0.45-0.23,0.92-0.14c0.19,0.76,0.38,1.37,0.57,1.84
		c0.19,0.47,0.4,0.9,0.64,1.27c0.23,0.38,0.47,0.8,0.71,1.27c0.23,0.47,0.45,1.04,0.63,1.7c-0.47,1.13-0.9,2.33-1.27,3.6
		c-0.38,1.27-1.13,2.14-2.26,2.61c0,0.75,0.28,1.16,0.85,1.2c0.56,0.05,0.89,0.4,0.99,1.06c0.09,0.85-0.05,1.55-0.42,2.12
		c2.64,4.43,5.04,9.07,7.21,13.92c2.17,4.85,4.61,9.49,7.35,13.92c-0.19,1.32-0.12,2.61,0.21,3.88s0.75,2.52,1.27,3.74
		c0.52,1.23,1.01,2.45,1.48,3.67c0.47,1.22,0.8,2.45,0.99,3.67c0.19,1.6,0.19,3.32,0,5.16c-0.19,1.84-0.56,3.6-1.13,5.3
		c-0.56,1.7-1.32,3.27-2.26,4.73c-0.94,1.46-2.03,2.57-3.25,3.32c-1.51,1.89-3.39,3.42-5.65,4.59c-2.26,1.18-4.33,2.57-6.22,4.17
		c-1.32,0.75-2.73,1.3-4.24,1.62c-1.51,0.33-3.06,0.68-4.66,1.06c-1.22,0.75-2.68,1.48-4.38,2.19c-1.7,0.71-3.44,1.34-5.23,1.91
		c-1.79,0.57-3.58,1.01-5.37,1.34c-1.79,0.33-3.39,0.4-4.8,0.21c-3.39,1.23-6.69,2.07-9.89,2.54
		C640.01,122.14,636.24,121.9,631.91,120.96z M633.75,69.53c-0.94,2.17-2.05,4.12-3.32,5.86c-1.27,1.74-2.52,3.51-3.74,5.3
		c-1.22,1.79-2.28,3.7-3.18,5.72c-0.9,2.03-1.39,4.4-1.48,7.13c1.88,1.6,4.12,2.57,6.71,2.9c2.59,0.33,5.25,0.38,7.98,0.14
		c2.73-0.23,5.46-0.59,8.2-1.06c2.73-0.47,5.18-0.71,7.35-0.71c0-0.85,0.38-1.27,1.13-1.27c3.96-0.38,7.63-1.48,11.02-3.32
		c3.39-1.84,6.92-3.7,10.6-5.58c0.47-1.13,1.08-2.12,1.84-2.97c0.75-0.85,1.18-2.07,1.27-3.67c-0.47-0.85-0.78-1.55-0.92-2.12
		c-0.14-0.57-0.21-1.41-0.21-2.54c-2.45-3.39-4.57-7.09-6.36-11.09c-1.79-4-3.86-7.79-6.22-11.37c-0.19,0.47-0.57,0.94-1.13,1.41
		c-0.57,0.47-1.18,0.38-1.84-0.28c-0.28,0.94-0.71,1.58-1.27,1.91c-0.57,0.33-1.2,0.49-1.91,0.49c-0.71,0-1.41-0.14-2.12-0.42
		c-0.71-0.28-1.34-0.66-1.91-1.13c-3.3,2.64-6.57,5.18-9.82,7.63c-3.25,2.45-6.2,5.32-8.83,8.62c-0.47,0.28-0.75,0.38-0.85,0.28
		C634.64,69.3,634.31,69.34,633.75,69.53z"/>
	<path d="M702.13,122.09c-1.32-0.85-2.38-1.93-3.18-3.25c-0.8-1.32-1.46-2.73-1.98-4.24c-0.52-1.5-0.94-3.08-1.27-4.73
		c-0.33-1.65-0.68-3.23-1.06-4.73c0-1.32,0.28-2.28,0.85-2.9c0.56-0.61,1.18-1.2,1.84-1.77c2.26-0.09,4.29-0.28,6.08-0.57
		c1.79-0.28,3.53-0.57,5.23-0.85c1.7-0.28,3.39-0.54,5.09-0.78c1.7-0.23,3.53-0.35,5.51-0.35c1.41-2.92,2.73-5.72,3.96-8.41
		c1.22-2.68,2.4-5.25,3.53-7.7c0.57-2.35,1.29-4.54,2.19-6.57c0.89-2.02,1.77-3.96,2.61-5.79s1.6-3.67,2.26-5.51
		c0.66-1.84,1.08-3.79,1.27-5.86c1.13-3.3,2.14-6.33,3.04-9.11c0.89-2.78,1.58-6.1,2.05-9.96c-3.58,0.57-6.45,1.11-8.62,1.62
		c-2.17,0.52-3.72,1.01-4.66,1.48c-1.89-0.09-3.37-0.47-4.45-1.13c-1.08-0.66-1.96-1.46-2.61-2.4c-0.66-0.94-1.23-2.02-1.7-3.25
		c-0.47-1.22-1.04-2.5-1.7-3.82c0.38-0.85,0.47-2.09,0.28-3.74c-0.19-1.65-0.75-2.85-1.7-3.6c0.75-0.19,1.32-0.82,1.7-1.91
		c0.38-1.08,0.42-1.91,0.14-2.47c1.6-0.47,3.3-0.78,5.09-0.92c1.79-0.14,3.55-0.28,5.3-0.42c1.74-0.14,3.41-0.33,5.02-0.57
		c1.6-0.23,2.97-0.73,4.1-1.48c4.9-0.19,10.01-0.38,15.33-0.57c5.32-0.19,10.24-0.42,14.76-0.71c1.7,0.56,3.65,0.85,5.86,0.85
		c2.21,0,4.43,0.14,6.64,0.42c2.21,0.28,4.19,0.9,5.93,1.84c1.74,0.94,2.94,2.59,3.6,4.94c1.41,0.19,2.47,0.57,3.18,1.13
		c0.71,0.56,1.15,1.25,1.34,2.05c0.19,0.8,0.26,1.7,0.21,2.68c-0.05,0.99-0.07,1.96-0.07,2.9c-1.51,1.13-3.42,2.05-5.72,2.76
		c-2.31,0.71-4.83,1.27-7.56,1.7c-2.73,0.42-5.58,0.71-8.55,0.85c-2.97,0.14-5.86,0.26-8.69,0.35c-0.47,3.11-1.3,6.76-2.47,10.95
		c-1.18,4.19-2.38,8.29-3.6,12.29c-1.23,4-2.29,7.58-3.18,10.74c-0.9,3.16-1.3,5.21-1.2,6.15c-0.94,2.17-1.72,4-2.33,5.51
		c-0.61,1.51-1.18,2.92-1.7,4.24c-0.52,1.32-1.04,2.61-1.55,3.89c-0.52,1.27-1.15,2.71-1.91,4.31h9.61
		c0.19,1.04,0.61,1.74,1.27,2.12c0.66,0.38,1.36,0.71,2.12,0.99c0.75,0.28,1.44,0.64,2.05,1.06c0.61,0.42,0.92,1.11,0.92,2.05
		c1.79,0.47,2.92,1.18,3.39,2.12c0.47,0.94,0.59,1.96,0.35,3.04c-0.24,1.08-0.71,2.19-1.41,3.32c-0.71,1.13-1.39,2.12-2.05,2.97
		c-0.85-0.19-1.65,0.02-2.4,0.64c-0.76,0.61-1.46,1.3-2.12,2.05c-2.73-0.38-5.42-0.42-8.05-0.14c-2.64,0.28-5.09,0.52-7.35,0.71
		c-0.47,0.09-0.66,0.35-0.57,0.78c0.09,0.42,0,0.73-0.28,0.92c-2.92-0.94-5.91-1.32-8.97-1.13c-3.06,0.19-6.17,0.64-9.33,1.34
		c-3.16,0.71-6.38,1.46-9.68,2.26C708.86,121.55,705.52,121.99,702.13,122.09z"/>
	<path d="M776.16,56.67c0.28-1.41,0.47-2.57,0.57-3.46c0.09-0.89-0.24-1.86-0.99-2.9c0.38-1.5,0.68-2.68,0.92-3.53
		c0.23-0.85,0.26-2.02,0.07-3.53c0.85-2.45,2.14-4.52,3.88-6.22c1.74-1.7,3.65-3.13,5.72-4.31c2.07-1.18,4.24-2.17,6.5-2.97
		c2.26-0.8,4.38-1.48,6.36-2.05c0-0.38-0.19-0.57-0.57-0.57c-0.38,0-0.47-0.23-0.28-0.71c5.09-0.94,10.19-2.31,15.33-4.1
		c5.13-1.79,10.38-3.39,15.75-4.8c5.37-1.41,10.88-2.28,16.53-2.61c5.65-0.33,11.59,0.4,17.8,2.19c0.38,1.13,0.89,2.21,1.55,3.25
		c0.66,1.04,1.34,2.05,2.05,3.04c0.71,0.99,1.34,1.96,1.91,2.9c0.57,0.94,0.89,1.93,0.99,2.97c1.13,1.04,2.05,2.14,2.75,3.32
		c0.71,1.18,0.82,2.76,0.35,4.73c-1.04,0.75-2.12,1.51-3.25,2.26c-1.13,0.75-2.31,1.46-3.53,2.12c-4.24-1.04-8.48-1.41-12.72-1.13
		c-4.24,0.28-8.05,0.61-11.44,0.99c-1.04-1.13-2.26-1.67-3.67-1.62c-1.41,0.05-2.9,0.28-4.45,0.71c-1.55,0.42-3.09,0.85-4.59,1.27
		c-1.51,0.42-2.92,0.54-4.24,0.35c-1.04,0.94-2.4,1.58-4.1,1.91c-1.7,0.33-3.49,0.59-5.37,0.78c-0.1,0.47,0,0.8,0.28,0.99
		c0.28,0.19,0.33,0.57,0.14,1.13c0.66,0.85,1.55,1.44,2.68,1.77c1.13,0.33,2.28,0.64,3.46,0.92c1.18,0.28,2.24,0.68,3.18,1.2
		c0.94,0.52,1.55,1.34,1.84,2.47c1.7,0.09,3.16,0.54,4.38,1.34c1.22,0.8,2.26,1.77,3.11,2.9c0.85,1.13,1.46,2.33,1.84,3.6
		c0.38,1.27,0.52,2.43,0.42,3.46c0.38,0.94,0.78,1.32,1.2,1.13c0.42-0.19,0.92,0.05,1.48,0.71c0.38,1.41,1.25,2.9,2.61,4.45
		c1.36,1.55,2.42,3.23,3.18,5.02c0.19,2.83,0.35,5.37,0.5,7.63s-0.26,4.47-1.2,6.64c-1.6,4.15-3.91,7.87-6.92,11.16
		c-3.02,3.3-6.43,6.19-10.24,8.69c-3.81,2.5-7.84,4.66-12.08,6.5s-8.43,3.37-12.57,4.59c-0.38-0.09-0.83-0.09-1.34,0
		c-0.52,0.09-0.64-0.19-0.35-0.85c-0.85,0.75-1.82,1.22-2.9,1.41c-1.08,0.19-2.26,0.26-3.53,0.21c-1.27-0.05-2.54-0.12-3.81-0.21
		c-1.27-0.09-2.52-0.05-3.74,0.14c-0.75-0.75-1.44-1.51-2.05-2.26c-0.61-0.75-1.11-1.65-1.48-2.68c-0.47-0.09-0.68-0.4-0.64-0.92
		c0.05-0.52-0.17-0.78-0.64-0.78c0-0.38,0.05-0.66,0.14-0.85c0.09-0.19,0.19-0.38,0.28-0.57c0.38-0.28,0.54-0.5,0.49-0.64
		c-0.05-0.14-0.19-0.28-0.42-0.42c-0.24-0.14-0.47-0.3-0.71-0.5c-0.24-0.19-0.31-0.42-0.21-0.71c0.47-0.85,0.64-1.86,0.49-3.04
		c-0.14-1.18-0.26-2.38-0.35-3.6c-0.09-1.22,0-2.38,0.28-3.46c0.28-1.08,1.08-2,2.4-2.76c3.86,0.38,7.51,0.19,10.95-0.56
		c3.44-0.75,6.69-1.79,9.75-3.11c3.06-1.32,5.98-2.75,8.76-4.31c2.78-1.55,5.49-2.99,8.12-4.31c0.28-0.94,0.73-1.74,1.34-2.4
		c0.61-0.66,1.25-1.29,1.91-1.91c0.66-0.61,1.27-1.27,1.84-1.98c0.56-0.71,0.99-1.58,1.27-2.61c0.09-0.38,0.09-0.66,0-0.85
		c-0.1-0.19-0.24-0.35-0.42-0.5c-0.19-0.14-0.38-0.3-0.57-0.49c-0.19-0.19-0.28-0.47-0.28-0.85c-0.28-0.09-0.54-0.19-0.78-0.28
		c-0.24-0.09-0.45-0.14-0.64-0.14c-2.45-1.22-5.04-2.26-7.77-3.11c-2.73-0.85-5.04-1.79-6.92-2.83c-1.13,0.75-2.26,0.94-3.39,0.56
		c-1.13-0.38-2.5-0.75-4.1-1.13c-3.96-0.19-7.7-0.57-11.23-1.13c-3.53-0.56-6.95-1.55-10.24-2.97c-0.19-0.56-0.42-1.06-0.71-1.48
		c-0.28-0.42-0.94-0.54-1.98-0.35c-0.66-0.94-1.34-1.81-2.05-2.61C777.36,58.63,776.73,57.71,776.16,56.67z"/>
	<path d="M865.6,115.59c-0.75-0.75-1.3-1.65-1.62-2.68c-0.33-1.04-1.11-1.88-2.33-2.54c-0.19-1.41-0.45-3.04-0.78-4.87
		c-0.33-1.84-0.66-3.72-0.99-5.65c-0.33-1.93-0.56-3.86-0.71-5.79c-0.14-1.93-0.07-3.7,0.21-5.3c0.19-0.85,0.49-1.65,0.92-2.4
		c0.42-0.75,0.85-1.48,1.27-2.19c0.42-0.71,0.75-1.43,0.99-2.19c0.23-0.75,0.26-1.51,0.07-2.26c0.56-0.09,0.92-0.4,1.06-0.92
		c0.14-0.52,0.59-0.68,1.34-0.5c0.66-2.07,1.36-4,2.12-5.79c0.75-1.79,1.55-3.53,2.4-5.23c0.85-1.7,1.72-3.41,2.61-5.16
		c0.89-1.74,1.72-3.7,2.47-5.86c-1.6-1.51-2.75-3.13-3.46-4.88c-0.71-1.74-1.25-3.51-1.62-5.3c-0.38-1.79-0.66-3.6-0.85-5.44
		c-0.19-1.84-0.57-3.7-1.13-5.58c1.13-1.7,2.5-3.08,4.1-4.17c1.6-1.08,3.37-1.98,5.3-2.68c1.93-0.71,4.03-1.27,6.29-1.7
		c2.26-0.42,4.66-0.92,7.21-1.48c4.52-1.41,8.57-2.52,12.15-3.32c3.58-0.8,7.06-1.46,10.46-1.98c3.39-0.52,6.92-0.99,10.6-1.41
		s7.91-1.06,12.72-1.91c0.09,0.28,0.26,0.42,0.49,0.42c0.23,0,0.54,0,0.92,0c0.28,0.66,0.8,0.99,1.55,0.99
		c0-0.28-0.02-0.54-0.07-0.78c-0.05-0.23-0.07-0.45-0.07-0.64c0.19,0,0.45,0.05,0.78,0.14c0.33,0.09,0.61,0.19,0.85,0.28
		c0.23,0.09,0.45,0.07,0.64-0.07c0.19-0.14,0.23-0.45,0.14-0.92c1.13,1.98,2.59,3.6,4.38,4.88c1.79,1.27,3.77,2.38,5.93,3.32
		c0.09,0.85,0.12,1.46,0.07,1.84c-0.05,0.38-0.12,0.73-0.21,1.06c-0.09,0.33-0.14,0.71-0.14,1.13s0.09,1.01,0.28,1.77
		c-1.51,2.54-3.23,4.52-5.16,5.93c-1.93,1.41-3.98,2.5-6.15,3.25c-2.17,0.75-4.45,1.32-6.85,1.7c-2.4,0.38-4.85,0.78-7.35,1.2
		c-2.5,0.42-5.02,1.01-7.56,1.77c-2.54,0.76-5.04,1.89-7.49,3.39c-0.75-0.28-1.44-0.4-2.05-0.35c-0.61,0.05-1.25,0.17-1.91,0.35
		c-0.66,0.19-1.39,0.38-2.19,0.56c-0.8,0.19-1.77,0.19-2.9,0c-0.75,0.66-1.62,1.13-2.61,1.41c-0.99,0.28-2,0.57-3.04,0.85
		c0.47,1.04,0.68,2.07,0.64,3.11c-0.05,1.04,0.07,1.93,0.35,2.68c3.96,0.38,8.33,0.35,13.14-0.07s9.51-0.73,14.13-0.92
		c0.09,0.47,0.05,0.8-0.14,0.99c-0.19,0.19-0.28,0.52-0.28,0.99c0.85,0.56,1.65,1.27,2.4,2.12c0.75,0.85,1.53,1.67,2.33,2.47
		c0.8,0.8,1.62,1.46,2.47,1.98c0.85,0.52,1.84,0.73,2.97,0.64c0.47,0.94,0.8,1.93,0.99,2.97c0.19,1.04,0.05,2.12-0.42,3.25
		c-1.89,1.23-3.72,2.47-5.51,3.74c-1.79,1.27-3.65,2.43-5.58,3.46c-1.93,1.04-4.03,1.88-6.29,2.54c-2.26,0.66-4.71,0.94-7.35,0.85
		c-0.47,0-0.87,0-1.2,0c-0.33,0-0.73-0.19-1.2-0.57c-0.94,0.47-2.19,0.64-3.74,0.49c-1.55-0.14-2.85,0.02-3.89,0.5
		c-1.32-0.47-2.85-0.71-4.59-0.71c-1.74,0-3.27-0.23-4.59-0.71c-1.7,2.45-3.3,5.02-4.8,7.7c-1.51,2.68-2.83,5.53-3.96,8.55
		c3.86,0.57,7.06,0.8,9.61,0.71c2.54-0.09,4.95-0.28,7.21-0.56c2.26-0.28,4.59-0.57,6.99-0.85c2.4-0.28,5.34-0.38,8.83-0.28
		c2.35-1.13,5.06-1.91,8.12-2.33c3.06-0.42,5.91-1.06,8.55-1.91c0.94,0.28,1.74,0.83,2.4,1.62c0.66,0.8,1.29,1.6,1.91,2.4
		c0.61,0.8,1.25,1.48,1.91,2.05c0.66,0.57,1.51,0.75,2.54,0.57c0.47,0.47,0.78,1.04,0.92,1.7c0.14,0.66,0.28,1.27,0.42,1.84
		c0.14,0.56,0.35,1.01,0.64,1.34c0.28,0.33,0.8,0.45,1.55,0.35c-1.79,3.67-3.79,6.5-6,8.48c-2.21,1.98-4.71,3.51-7.49,4.59
		c-2.78,1.08-5.89,1.89-9.33,2.4c-3.44,0.52-7.28,1.15-11.51,1.91c-1.04,0.19-1.91,0.17-2.61-0.07c-0.71-0.23-1.44-0.35-2.19-0.35
		c-2.64,0.47-5.77,0.94-9.4,1.41c-3.63,0.47-7.28,0.66-10.95,0.56c-3.67-0.09-7.21-0.56-10.6-1.41
		C870.68,119.26,867.86,117.76,865.6,115.59z"/>
</g>
</svg>
